<?xml version="1.0" standalone="no"?>
<!DOCTYPE svg PUBLIC "-//W3C//DTD SVG 20010904//EN"
 "http://www.w3.org/TR/2001/REC-SVG-20010904/DTD/svg10.dtd">
<svg version="1.0" xmlns="http://www.w3.org/2000/svg"
 width="148.000000pt" height="148.000000pt" viewBox="0 0 148.000000 148.000000"
 preserveAspectRatio="xMidYMid meet">
<g transform="translate(0.000000,148.000000) scale(0.100000,-0.100000)"
fill="#000000" stroke="none">
<path d="M12 748 c-1 -406 1 -738 6 -738 6 0 6 539 -1 1215 -1 143 -3 -72 -5
-477z"/>
<path d="M325 1191 c3 -2 -3 -9 -11 -16 -15 -10 -15 -14 -1 -41 9 -17 23 -36
31 -43 9 -7 13 -18 9 -24 -3 -6 -1 -7 5 -3 11 6 17 -13 13 -37 -1 -5 3 -6 8
-3 5 3 14 -1 21 -9 7 -8 9 -15 4 -15 -5 0 2 -10 16 -21 14 -11 18 -17 10 -13
-8 5 1 -12 21 -36 20 -25 46 -62 58 -83 13 -21 28 -43 35 -50 25 -26 74 -106
67 -109 -5 -2 -46 -48 -91 -103 -46 -55 -106 -125 -135 -155 -28 -30 -60 -68
-70 -83 -16 -25 -16 -30 -3 -43 23 -23 72 -25 104 -3 16 10 26 19 22 19 -3 0
7 14 23 31 16 17 33 28 39 24 6 -3 7 0 4 9 -4 10 -1 16 7 16 7 0 10 3 6 6 -3
3 13 25 36 49 23 24 56 60 72 80 58 70 56 69 73 43 8 -13 25 -34 36 -47 12
-13 16 -21 10 -18 -6 3 -11 0 -11 -8 0 -8 2 -13 5 -10 5 5 32 -20 32 -31 0 -4
10 -16 23 -28 12 -12 23 -28 25 -35 3 -14 46 -75 73 -102 25 -25 239 -25 270
0 l22 17 -28 45 c-15 24 -32 46 -37 47 -4 2 -6 8 -2 13 3 5 0 9 -6 9 -7 0 -10
5 -8 12 2 6 -8 24 -24 38 -15 15 -28 30 -28 34 0 7 -40 67 -51 76 -3 3 -14 20
-24 37 -11 18 -23 33 -27 33 -4 0 -8 5 -8 11 0 7 -8 18 -17 26 -11 9 -12 11
-3 7 10 -5 9 0 -4 14 -11 12 -16 22 -13 22 3 0 -5 11 -18 25 -33 32 -32 44 13
93 22 23 38 42 36 42 -4 0 70 83 111 124 22 22 31 34 20 26 -11 -8 4 9 33 38
28 30 52 61 52 70 0 24 -29 39 -71 38 -32 -1 -43 -10 -100 -76 -85 -100 -85
-100 -94 -92 -5 4 -5 1 -1 -5 4 -8 -15 -35 -48 -69 -49 -51 -55 -54 -61 -35
-3 12 -11 21 -16 21 -5 0 -9 8 -9 18 0 10 -13 31 -30 47 -16 15 -27 33 -23 38
3 6 1 7 -5 3 -7 -4 -12 -1 -12 6 0 7 -16 31 -35 52 -19 22 -31 44 -28 50 3 6
3 8 -1 5 -4 -4 -18 4 -32 18 -23 23 -29 24 -144 22 -66 -2 -117 -5 -115 -8z
m328 -143 c46 -68 95 -139 109 -159 l24 -36 135 158 c131 154 135 158 173 159
l39 0 -20 -22 c-127 -141 -291 -343 -286 -352 7 -12 153 -224 267 -389 l68
-97 -125 0 -125 0 -113 165 c-62 91 -115 165 -118 165 -4 0 -69 -75 -146 -165
-135 -159 -141 -165 -178 -165 l-38 0 78 91 c43 50 117 137 164 192 l87 101
-90 131 c-49 71 -123 178 -164 238 l-74 107 124 0 125 0 84 -122z"/>
<path d="M630 823 c109 -159 224 -325 256 -370 l57 -83 53 0 53 0 -255 370
-256 370 -53 0 -53 0 198 -287z m-84 224 c16 -19 36 -44 44 -57 8 -12 20 -28
26 -34 6 -7 14 -22 18 -33 4 -12 20 -36 36 -53 16 -17 29 -33 29 -36 0 -2 12
-20 27 -39 14 -19 23 -39 18 -46 -4 -7 -3 -9 3 -6 5 3 20 -12 34 -34 13 -23
31 -48 40 -57 9 -10 24 -32 33 -49 9 -18 21 -33 27 -33 6 0 8 -4 4 -9 -3 -5
-1 -12 4 -16 14 -8 71 -94 71 -106 0 -6 4 -8 8 -5 4 2 9 -5 9 -17 2 -16 0 -18
-6 -8 -5 7 -13 11 -19 7 -6 -3 -14 -1 -18 5 -5 8 -2 10 7 5 9 -5 8 -3 -2 6
-28 23 -120 168 -114 178 4 6 3 10 -2 9 -17 -3 -33 1 -31 9 3 16 -15 41 -26
35 -6 -3 -8 -3 -4 1 3 4 -11 31 -33 59 -21 29 -39 57 -39 63 0 6 -10 19 -22
28 -13 9 -17 14 -10 10 8 -3 -1 14 -20 38 -18 25 -40 55 -48 67 -8 13 -23 32
-32 43 -10 11 -20 29 -23 39 -4 11 -11 19 -16 19 -6 0 -8 4 -5 9 3 5 -1 12
-10 15 -15 6 -11 26 6 26 4 0 21 -15 36 -33z"/>
<path d="M398 13 c199 -2 525 -2 725 0 199 1 36 2 -363 2 -399 0 -562 -1 -362
-2z"/>
</g>
</svg>
