<?xml version="1.0" standalone="no"?>
<!DOCTYPE svg PUBLIC "-//W3C//DTD SVG 20010904//EN"
 "http://www.w3.org/TR/2001/REC-SVG-20010904/DTD/svg10.dtd">
<svg version="1.0" xmlns="http://www.w3.org/2000/svg"
 width="600.000000pt" height="327.000000pt" viewBox="0 0 600.000000 327.000000"
 preserveAspectRatio="xMidYMid meet">
<g transform="translate(0.000000,327.000000) scale(0.100000,-0.100000)"
fill="#000000" stroke="none">
<path d="M2790 2991 c-301 -66 -565 -286 -687 -574 -143 -340 -83 -738 154
-1015 l28 -33 41 35 c60 51 418 532 408 548 -5 7 -53 74 -109 148 l-100 135
-6 -65 c-4 -36 -7 -88 -8 -116 -1 -48 1 -52 25 -57 18 -3 34 3 56 24 17 15 36
25 41 22 6 -3 -3 -17 -19 -30 l-29 -23 52 0 c54 0 82 -16 37 -22 l-26 -3 23
-20 c18 -15 20 -15 10 -2 -7 9 -9 17 -3 17 25 0 28 -26 7 -57 -12 -18 -25 -30
-28 -26 -3 3 -9 -6 -12 -20 -7 -27 -30 -42 -47 -30 -7 3 -8 1 -4 -5 9 -15 1
-15 -25 -2 -10 6 -19 8 -19 6 0 -3 14 -13 32 -22 31 -16 31 -17 10 -28 -11 -6
-22 -15 -24 -21 -2 -5 -8 -9 -15 -9 -7 1 -12 -1 -12 -5 3 -22 -15 -51 -29 -46
-13 5 -13 3 -1 -12 8 -9 9 -14 2 -10 -6 4 -13 1 -16 -5 -4 -10 -7 -11 -18 0
-9 9 -10 12 -1 12 7 0 12 9 12 20 0 11 -5 20 -11 20 -6 0 -8 9 -4 23 5 17 4
19 -4 7 -18 -26 -12 -5 12 41 13 24 30 45 38 45 8 1 20 2 28 3 10 1 11 4 2 15
-9 10 -9 16 -1 21 8 5 8 11 -1 21 -8 10 -8 14 0 14 6 0 11 7 11 15 0 8 7 15
16 15 8 0 12 5 9 10 -3 6 4 10 18 10 26 0 52 -23 44 -38 -3 -4 -2 -14 3 -22
14 -22 7 31 -7 54 -8 15 -25 21 -71 24 -58 4 -59 4 -67 -24 l-8 -29 -6 30 c-5
25 -11 30 -45 33 -34 3 -38 2 -28 -11 11 -13 8 -15 -18 -13 -16 1 -30 -1 -30
-6 0 -18 62 -11 73 8 5 8 13 12 18 9 5 -4 6 -11 3 -17 -4 -6 -2 -8 4 -4 7 4
11 -7 10 -34 0 -32 -4 -40 -19 -40 -27 0 -33 19 -12 43 11 14 12 17 2 10 -12
-10 -18 -10 -29 0 -12 10 -12 9 -3 -3 16 -21 -1 -50 -18 -33 -13 13 -47 1 -60
-20 -4 -5 -19 -7 -33 -3 -31 8 -37 52 -8 59 16 4 16 5 0 6 -10 0 -18 5 -18 10
0 5 -9 11 -20 14 -23 6 -18 33 8 40 12 3 11 5 -5 6 -15 1 -24 -7 -32 -29 -9
-28 -8 -30 14 -30 21 0 24 -5 27 -42 3 -39 6 -43 36 -49 24 -5 35 -3 39 7 3 8
11 14 18 14 7 0 16 6 19 13 4 6 4 2 2 -10 -3 -19 -1 -20 14 -11 14 9 22 9 34
-2 14 -11 15 -15 2 -29 -8 -9 -18 -32 -23 -51 -5 -19 -14 -35 -20 -35 -18 0
-21 -7 -27 -54 -2 -23 -2 -41 1 -38 2 3 13 -2 22 -11 14 -13 15 -21 7 -32 -10
-13 -9 -13 7 -1 15 12 20 11 37 -4 15 -14 17 -21 9 -31 -6 -8 -15 -11 -20 -8
-5 3 -8 2 -7 -3 3 -8 -5 -13 -21 -13 -7 0 -79 91 -85 107 -1 1 -13 4 -28 8
l-28 7 16 -38 c34 -83 48 -113 51 -110 2 2 -7 32 -21 67 -31 74 -30 70 -11 62
9 -3 23 -20 32 -37 9 -17 30 -45 48 -62 l32 -32 -19 -23 c-11 -13 -16 -18 -12
-10 4 9 3 12 -4 7 -6 -3 -13 -2 -17 4 -3 5 -11 10 -17 10 -6 0 -5 -6 3 -16 20
-24 22 -55 3 -47 -9 3 -13 12 -9 22 5 13 4 14 -6 4 -10 -10 -10 -16 -1 -25 8
-8 6 -16 -10 -30 -12 -10 -25 -18 -31 -18 -10 0 -56 54 -47 55 3 1 -3 10 -13
20 -10 9 -16 24 -13 31 3 8 0 11 -8 8 -9 -4 -13 3 -11 20 2 19 -1 23 -13 19
-12 -5 -14 -2 -9 11 4 9 3 15 -2 12 -15 -9 -34 41 -27 71 7 27 7 27 -8 8 l-15
-20 -2 20 c-1 11 -1 29 -1 40 2 15 0 16 -7 7 -6 -10 -10 -6 -14 15 -5 29 2 48
10 25 3 -6 9 -9 14 -6 5 3 -2 15 -16 26 -15 12 -24 27 -21 35 3 8 1 11 -4 8
-6 -3 -10 3 -10 14 0 10 -3 27 -7 37 -5 13 -3 15 8 9 10 -7 9 -1 -3 18 -15 21
-18 48 -17 144 0 84 3 110 9 89 5 -16 7 -33 5 -37 -3 -3 1 -12 9 -18 11 -9 12
-4 6 29 -20 111 60 346 167 488 14 18 26 41 27 50 2 9 8 17 13 17 6 0 31 22
55 50 23 27 37 45 29 40 -10 -5 -12 -4 -7 3 10 16 26 15 26 0 0 -15 67 -18 88
-5 7 5 14 2 18 -8 6 -14 8 -14 25 1 11 10 21 15 24 13 8 -9 -26 -49 -41 -49
-25 0 -14 -28 21 -49 18 -11 18 -11 -5 -5 -14 4 -33 8 -42 8 -13 0 -14 4 -6
19 8 16 4 15 -23 -5 -54 -40 -94 -64 -86 -51 8 13 -72 6 -87 -8 -6 -5 82 -9
205 -9 286 -1 270 7 428 -205 45 -60 86 -110 91 -110 5 0 50 54 100 120 164
217 279 312 443 366 l78 25 -70 48 c-91 60 -201 111 -299 138 -112 30 -346 35
-462 9z m277 -11 c1 0 16 -22 34 -50 18 -27 36 -50 41 -50 4 0 -8 22 -27 49
-19 26 -35 51 -35 55 0 10 35 7 47 -5 6 -6 30 -12 54 -14 69 -4 71 -4 64 -14
-6 -11 30 -25 43 -17 9 6 87 -15 98 -27 4 -4 15 -7 25 -7 10 0 24 -9 32 -20 8
-11 17 -17 22 -12 5 4 5 2 2 -4 -8 -14 22 -56 34 -48 6 3 3 11 -7 18 -12 9
-14 15 -5 20 6 4 14 0 17 -8 3 -9 11 -13 18 -9 6 3 7 2 3 -2 -4 -5 3 -15 15
-22 18 -9 19 -12 6 -13 -9 0 -20 5 -23 10 -4 6 -11 7 -17 4 -7 -5 -4 -12 7
-21 16 -11 17 -13 2 -13 -9 0 -28 16 -43 35 -15 20 -29 33 -32 31 -3 -3 8 -22
23 -42 24 -31 25 -35 7 -25 -18 10 -21 9 -16 -4 9 -21 -10 -19 -31 5 -13 14
-22 17 -30 10 -7 -6 -19 -8 -27 -5 -24 9 -67 -39 -64 -71 2 -15 -1 -33 -6 -38
-4 -6 -17 -21 -28 -34 l-19 -24 -11 44 c-6 24 -18 59 -26 79 -20 45 -11 83 17
76 10 -3 19 -1 19 4 0 5 -18 8 -40 6 -42 -2 -46 -6 -31 -35 8 -16 25 -57 31
-74 36 -118 36 -118 8 -117 -13 0 -17 3 -10 6 17 7 15 20 -3 20 -8 0 -12 -4
-9 -9 4 -5 -2 -8 -12 -6 -20 3 -48 73 -37 92 4 6 -2 4 -12 -4 -10 -8 -16 -10
-12 -4 8 14 -16 37 -27 27 -4 -4 -11 -1 -15 6 -5 7 -20 14 -33 14 -26 2 -29
11 -14 36 7 10 6 12 -4 6 -8 -5 -11 -3 -8 6 3 9 22 15 54 16 27 1 55 2 62 2 6
1 12 6 12 12 0 5 -3 8 -8 5 -4 -2 -34 -5 -67 -7 -33 -1 -64 -7 -68 -13 -5 -6
-6 -1 -2 11 3 12 1 24 -4 27 -6 4 -15 -11 -21 -33 -9 -34 -18 -44 -53 -59 -49
-22 -82 -56 -71 -73 4 -8 3 -10 -4 -5 -7 4 -18 -6 -28 -28 -12 -25 -25 -35
-46 -38 -24 -4 -29 -1 -35 21 -11 45 -7 83 10 93 24 13 21 23 -7 23 -16 0 -21
-4 -16 -10 5 -6 5 -17 -1 -25 -8 -13 -12 -12 -24 4 -8 11 -15 15 -15 9 0 -6 7
-16 15 -23 18 -15 20 -31 3 -25 -18 7 -49 65 -42 76 3 6 -2 21 -11 35 -15 24
-15 27 0 44 9 10 30 24 46 30 16 7 27 16 24 20 -3 5 8 11 25 15 16 4 30 10 30
15 0 12 68 33 90 27 11 -3 21 0 23 7 2 6 25 11 56 11 45 0 49 2 34 13 -12 9
-29 11 -48 6 -16 -4 -40 -7 -52 -6 -13 0 -21 -3 -18 -8 2 -4 -7 -5 -21 -2 -35
6 -24 13 38 22 39 6 161 6 185 0z m-307 -66 c-41 -19 -76 -40 -78 -45 -2 -5
-18 -9 -35 -9 l-32 1 25 14 c14 8 19 14 11 15 -8 0 -12 3 -8 6 13 13 134 53
162 53 24 1 15 -6 -45 -35z m-130 -26 c0 -5 -7 -8 -15 -4 -23 8 -68 -12 -59
-26 6 -9 9 -9 12 0 4 14 42 16 42 2 0 -5 10 -10 23 -11 12 0 16 -3 9 -6 -6 -2
-10 -8 -8 -12 3 -4 -9 -5 -25 -3 -22 3 -29 9 -24 20 4 11 2 12 -7 5 -7 -6 -21
-10 -30 -10 -27 1 -3 35 35 51 33 14 47 12 47 -6z m-124 -50 c4 -7 3 -8 -4 -4
-7 4 -12 2 -12 -4 0 -6 -4 -9 -9 -6 -5 3 -21 -4 -37 -16 -15 -13 -24 -17 -20
-10 6 11 64 52 73 52 1 0 5 -5 9 -12z m103 -23 c20 -6 44 -57 36 -77 -4 -9 1
-18 9 -21 9 -4 16 -13 16 -21 0 -21 -28 -28 -38 -9 -7 11 -11 12 -16 4 -4 -7
-3 -17 2 -24 5 -7 9 -20 9 -29 0 -14 -3 -15 -14 -7 -7 6 -11 15 -8 19 3 4 -3
14 -12 21 -14 12 -16 12 -8 -1 12 -19 14 -50 3 -50 -4 0 -13 9 -20 20 -7 11
-18 20 -25 20 -7 0 -13 5 -13 11 0 5 -4 8 -9 4 -5 -3 -12 -1 -15 4 -3 5 9 7
28 4 26 -3 37 0 49 17 8 12 13 30 10 41 -6 22 6 25 27 7 12 -11 12 -10 2 3 -6
9 -8 19 -4 24 4 4 -6 1 -23 -7 -28 -14 -65 -14 -65 0 0 3 10 17 23 31 12 14
14 20 5 12 -9 -7 -21 -10 -26 -7 -9 6 -27 -40 -23 -57 1 -5 -3 -6 -9 -2 -14 9
-13 35 2 35 9 0 9 3 -1 13 -10 10 -16 7 -30 -12 -18 -23 -80 -44 -67 -22 3 5
3 11 -1 14 -5 2 -3 2 4 1 6 -2 24 7 39 19 15 12 38 22 51 23 13 0 26 3 29 7 6
6 54 1 83 -8z m401 -50 c0 -13 5 -47 11 -75 l11 -51 26 17 27 17 -17 -25 c-21
-31 -17 -34 72 -44 64 -7 93 -24 41 -24 -27 0 -119 -19 -130 -27 -2 -2 4 -12
13 -22 10 -11 15 -25 11 -30 -3 -6 -2 -11 4 -11 5 0 19 16 31 35 12 19 23 35
24 35 6 0 0 -70 -7 -77 -5 -4 -5 1 -1 12 6 15 -1 12 -29 -12 -21 -18 -45 -33
-55 -33 -14 0 -12 4 7 19 16 12 20 20 12 25 -6 4 -9 11 -6 16 3 4 -2 13 -9 19
-12 10 -16 3 -24 -41 -20 -103 -20 -109 -6 -97 7 5 11 19 9 30 -3 16 0 19 15
14 12 -4 20 -2 20 5 0 7 7 9 16 6 8 -3 13 -2 10 3 -3 5 3 11 15 14 21 6 22 7
-16 -40 -5 -7 -26 -33 -45 -57 -38 -49 -48 -55 -49 -28 -1 9 -2 26 -2 37 -1
11 2 62 6 113 8 87 9 91 25 77 16 -14 18 -14 24 0 3 9 10 14 14 11 5 -3 22 -1
38 4 25 7 20 8 -30 9 -50 1 -57 3 -46 16 6 8 9 19 5 24 -3 6 -10 30 -14 53 -8
41 -9 40 -10 -25 -1 -61 -4 -72 -33 -108 -23 -28 -37 -38 -50 -33 -32 10 -19
-16 17 -33 37 -18 46 -33 19 -33 -23 0 -94 74 -94 96 0 16 3 16 20 -6 11 -14
20 -19 20 -11 0 10 3 11 14 2 12 -10 17 -8 25 7 9 18 5 20 -46 31 -31 6 -70
11 -87 11 -24 0 -28 3 -16 10 9 6 53 8 110 4 l95 -6 -40 42 c-31 33 -34 39
-13 26 l26 -17 13 75 c12 73 29 103 29 51z m414 -7 c-2 -3 2 -9 8 -11 7 -3 3
-6 -9 -6 -13 -1 -42 -18 -65 -38 -23 -21 -38 -32 -34 -25 4 7 2 12 -6 12 -9 0
-9 3 2 10 13 8 13 11 1 19 -14 9 -6 35 9 26 4 -3 11 2 14 10 4 11 17 15 45 13
21 -2 37 -6 35 -10z m-853 -49 c-12 -12 -24 -19 -27 -16 -7 6 25 37 39 37 6 0
1 -9 -12 -21z m399 12 c0 -5 -9 -12 -20 -16 -19 -6 -64 -54 -73 -77 -2 -7 -7
-10 -11 -6 -13 11 24 68 57 88 36 22 47 25 47 11z m101 -6 c27 -14 69 -68 69
-87 0 -17 -18 -6 -28 17 -7 14 -28 35 -47 46 -19 12 -35 25 -35 30 0 12 6 11
41 -6z m-361 -57 c0 -5 5 -6 12 -2 8 5 9 2 5 -9 -3 -9 -2 -19 3 -22 6 -4 10
-12 10 -18 0 -9 -2 -9 -8 1 -5 7 -27 13 -49 15 -44 2 -51 19 -19 43 19 13 46
9 46 -8z m210 -18 c0 -5 -5 -10 -11 -10 -5 0 -7 5 -4 10 3 6 8 10 11 10 2 0 4
-4 4 -10z m-430 -10 c0 -5 -2 -10 -4 -10 -3 0 -8 5 -11 10 -3 6 -1 10 4 10 6
0 11 -4 11 -10z m54 -9 c3 -5 -6 -8 -19 -8 -14 0 -25 3 -25 8 0 5 9 9 19 9 11
0 22 -4 25 -9z m406 -11 c0 -5 -17 -9 -37 -9 -38 1 -38 1 -8 9 43 11 45 11 45
0z m-104 -68 c4 -9 8 -19 8 -22 1 -3 7 -16 15 -30 l12 -25 -20 25 c-11 14 -18
27 -15 29 2 2 -5 10 -16 18 -11 8 -20 18 -20 23 0 15 28 0 36 -18z m334 14 c0
-7 -8 -20 -17 -27 -15 -11 -16 -11 -6 0 6 7 9 20 6 27 -3 8 0 14 6 14 6 0 11
-6 11 -14z m-191 -66 c-1 -32 -2 -33 -9 -10 -4 14 -8 36 -9 50 -1 20 1 22 9
10 5 -8 9 -31 9 -50z m-54 -50 c4 -6 16 -8 28 -5 17 5 19 4 7 -4 -9 -6 -10
-11 -3 -11 12 0 12 -17 0 -37 -5 -7 -4 -13 1 -13 6 0 13 -8 16 -17 4 -10 -7
-4 -26 15 -28 28 -31 34 -18 43 13 9 12 10 -2 5 -16 -5 -48 26 -48 47 0 9 36
-9 45 -23z m-864 -203 c-10 -9 -11 -8 -5 6 3 10 9 15 12 12 3 -3 0 -11 -7 -18z
m-4 -69 c-3 -7 -5 -2 -5 12 0 14 2 19 5 13 2 -7 2 -19 0 -25z m476 -5 c1 -4
12 -18 24 -29 24 -22 32 -51 11 -38 -7 4 -8 3 -4 -4 4 -6 13 -9 20 -6 18 7 31
-15 18 -28 -8 -8 -15 -8 -26 1 -10 9 -16 9 -21 1 -4 -6 -4 -14 -1 -17 3 -4 6
-1 6 6 0 7 5 9 11 6 15 -10 -18 -44 -39 -41 -13 2 -17 13 -16 52 1 81 11 136
17 97z m121 -151 c3 -5 -1 -9 -9 -9 -8 0 -12 4 -9 9 3 4 7 8 9 8 2 0 6 -4 9
-8z m-130 -88 c-14 -18 -30 -31 -35 -28 -5 3 3 21 17 40 14 18 30 31 35 28 5
-3 -3 -21 -17 -40z m9 -45 c-6 -6 -9 -19 -6 -28 5 -13 3 -14 -7 -4 -11 10 -11
15 0 28 7 8 15 15 18 15 3 0 1 -5 -5 -11z m-33 -20 c0 -11 -4 -18 -9 -15 -12
8 -24 -10 -45 -63 -15 -39 -15 -45 -1 -61 8 -9 13 -24 9 -33 -3 -9 1 -26 10
-39 26 -36 18 -44 -13 -14 -19 18 -31 24 -36 16 -4 -7 -13 -2 -26 14 -25 31
-24 42 4 69 13 12 32 46 42 75 13 37 24 52 37 52 10 0 18 5 18 10 0 6 2 10 5
10 3 0 5 -9 5 -21z m43 -144 c-3 -9 -8 -14 -10 -11 -3 3 -2 9 2 15 9 16 15 13
8 -4z m-102 -92 c13 -16 12 -17 -3 -4 -17 13 -22 21 -14 21 2 0 10 -8 17 -17z"/>
<path d="M3005 2946 c-24 -7 -34 -14 -25 -17 8 -3 27 -1 42 5 23 8 30 6 47
-15 11 -13 19 -29 16 -36 -2 -7 2 -10 11 -6 9 3 14 -1 14 -12 0 -13 -8 -16
-42 -14 -29 3 -43 -1 -46 -10 -3 -10 0 -12 12 -8 10 4 38 7 62 7 52 0 51 7
-13 77 -38 41 -38 41 -78 29z"/>
<path d="M3210 2928 c0 -5 -4 -7 -9 -3 -5 3 -13 0 -16 -6 -4 -5 -13 -8 -21 -5
-11 4 -12 2 -1 -14 6 -11 15 -20 20 -20 4 0 6 -4 2 -9 -3 -6 -14 -8 -25 -6
-13 3 -17 -1 -13 -11 7 -19 23 -18 39 4 13 16 15 16 28 0 18 -24 29 -23 16 1
-5 11 -19 23 -30 26 -28 9 -25 22 6 29 16 4 31 2 38 -5 8 -9 7 -11 -6 -6 -15
5 -15 4 0 -24 9 -16 23 -29 31 -29 11 0 10 4 -3 19 -12 13 -14 21 -6 26 8 5 8
10 0 20 -14 16 -50 26 -50 13z"/>
<path d="M3027 2912 c-18 -19 -23 -42 -9 -42 8 0 34 51 29 57 -2 2 -11 -5 -20
-15z"/>
<path d="M3290 2926 c0 -13 71 -55 84 -50 20 8 21 20 2 27 -10 4 -13 1 -9 -9
6 -17 -4 -18 -22 -1 -40 35 -55 44 -55 33z"/>
<path d="M2847 2909 c7 -7 15 -10 18 -7 3 3 -2 9 -12 12 -14 6 -15 5 -6 -5z"/>
<path d="M3265 2890 c-3 -5 3 -10 15 -10 12 0 18 -4 15 -10 -4 -6 6 -10 22
-10 l28 0 -33 20 c-38 23 -39 23 -47 10z"/>
<path d="M3409 2828 c18 -17 35 -27 39 -24 6 7 -8 19 -33 30 -6 3 -4 8 4 14
10 7 6 10 -14 10 l-28 0 32 -30z"/>
<path d="M2708 2843 c6 -2 10 -8 7 -13 -3 -4 4 -6 15 -3 21 6 27 -11 11 -36
-13 -21 -2 -40 20 -34 15 4 17 8 8 19 -6 8 -9 21 -5 29 10 27 -5 45 -38 44
-17 0 -25 -3 -18 -6z"/>
<path d="M3340 2846 c0 -2 7 -7 16 -10 8 -3 12 -2 9 4 -6 10 -25 14 -25 6z"/>
<path d="M3260 2831 c0 -4 11 -6 25 -3 14 2 25 6 25 8 0 2 -11 4 -25 4 -14 0
-25 -4 -25 -9z"/>
<path d="M3150 2781 c5 -11 15 -32 20 -47 6 -15 13 -24 16 -22 7 8 -27 88 -37
88 -6 0 -5 -8 1 -19z"/>
<path d="M3040 2760 c8 -5 20 -10 25 -10 6 0 3 5 -5 10 -8 5 -19 10 -25 10 -5
0 -3 -5 5 -10z"/>
<path d="M3191 2678 c-1 -15 4 -30 9 -33 12 -7 12 12 0 40 -8 18 -9 17 -9 -7z"/>
<path d="M3048 2413 c7 -3 16 -2 19 1 4 3 -2 6 -13 5 -11 0 -14 -3 -6 -6z"/>
<path d="M3030 2380 c-14 -10 -23 -21 -20 -23 3 -2 16 6 30 19 30 29 25 31
-10 4z"/>
<path d="M2404 1709 c-9 -15 11 -33 30 -26 9 4 13 13 10 22 -7 17 -30 20 -40
4z"/>
<path d="M3570 2732 c-167 -55 -267 -137 -435 -360 -72 -94 -132 -171 -135
-171 -3 -1 -59 72 -125 161 -87 117 -128 165 -152 174 -23 10 -82 14 -203 14
l-170 0 44 -57 c60 -79 390 -525 399 -540 5 -7 -62 -105 -172 -252 -228 -306
-246 -327 -296 -357 -110 -64 -207 12 -192 150 5 41 4 47 -5 31 -6 -11 -13
-53 -16 -95 -3 -64 0 -82 20 -120 101 -196 475 -118 686 143 105 130 170 222
174 242 2 11 8 24 13 28 6 5 4 7 -5 4 -8 -2 -15 -10 -15 -18 -1 -8 -6 -13 -13
-12 -7 2 -11 0 -10 -5 4 -11 -28 -53 -35 -45 -4 3 -8 1 -8 -5 -1 -7 -2 -16 -3
-20 -2 -17 -88 -112 -96 -107 -5 3 -7 -6 -6 -20 2 -13 0 -23 -3 -22 -3 2 -19
-11 -36 -27 -16 -16 -24 -26 -16 -21 10 6 12 4 7 -4 -4 -6 -16 -9 -26 -6 -15
5 -18 2 -15 -14 2 -12 0 -21 -5 -21 -5 0 -16 -7 -24 -16 -9 -9 -23 -17 -31
-18 -8 -1 -21 -10 -27 -19 -7 -9 -31 -25 -53 -36 -37 -18 -41 -18 -60 -3 -18
16 -19 16 -6 0 7 -9 10 -22 7 -27 -10 -15 -38 -1 -32 15 7 19 3 18 -18 -8 -18
-20 -18 -21 0 -14 15 6 16 5 7 -5 -7 -7 -30 -14 -52 -15 -21 -1 -44 -5 -50 -8
-6 -4 -11 -3 -11 3 0 5 15 15 33 22 26 9 33 17 34 41 0 17 -2 27 -6 22 -3 -5
-19 -10 -35 -11 -22 -2 -26 1 -18 9 7 7 12 17 12 23 0 5 -5 2 -11 -7 -5 -10
-9 -21 -9 -24 3 -13 -24 -22 -40 -14 -13 7 -16 2 -15 -25 0 -18 3 -31 8 -28 4
2 7 -1 7 -6 0 -16 -15 -13 -60 10 -22 12 -47 19 -55 15 -8 -3 -14 0 -12 7 1 7
-4 11 -11 9 -8 -1 -11 1 -9 5 5 9 -18 34 -25 28 -2 -2 -4 5 -4 16 0 18 2 18
12 5 6 -9 14 -13 17 -9 4 3 9 -1 12 -9 4 -11 18 -13 60 -8 30 3 60 11 66 17 6
6 18 9 27 6 8 -4 13 -2 10 3 -8 12 17 35 28 26 4 -4 4 -1 0 6 -4 7 -1 12 8 12
9 0 16 3 16 8 0 12 47 62 52 56 3 -2 8 2 12 11 4 11 2 14 -7 9 -6 -4 3 9 21
28 18 19 29 38 25 43 -5 4 0 5 9 2 11 -4 17 -2 15 6 -1 7 4 11 12 9 12 -3 12
-1 0 14 -9 12 -9 15 -1 10 6 -4 12 -3 12 2 0 4 8 17 18 28 10 10 20 24 23 29
2 6 8 9 14 7 5 -2 7 0 3 3 -12 12 12 47 28 41 8 -3 12 -2 9 3 -7 12 16 62 26
56 4 -3 11 4 14 16 7 20 23 44 52 74 7 7 9 16 5 20 -4 4 2 5 12 3 11 -1 21 4
23 12 4 13 3 13 -6 0 -7 -9 -11 -11 -11 -3 0 7 8 17 18 22 9 6 13 11 8 11 -6
0 3 14 20 31 18 19 22 28 11 24 -26 -11 -21 3 23 62 23 29 38 58 35 63 -3 6
-3 15 1 21 5 8 8 8 14 0 4 -8 20 5 45 34 20 25 34 49 31 52 -4 4 -13 -3 -22
-15 -8 -12 -20 -19 -26 -16 -7 4 -8 2 -4 -4 7 -11 -6 -17 -27 -13 -5 1 -6 -3
-2 -9 3 -6 11 -7 17 -4 7 4 8 2 4 -4 -5 -8 -13 -8 -31 0 -19 9 -22 15 -15 33
6 17 5 27 -5 35 -8 7 -12 17 -8 23 4 6 1 7 -7 2 -10 -6 -12 -4 -7 9 4 11 3 15
-4 10 -6 -3 -22 6 -36 22 -13 16 -22 24 -19 17 4 -6 0 -17 -7 -25 -7 -7 -16
-22 -20 -32 -7 -19 -8 -19 -23 0 -14 18 -15 18 -4 -3 12 -25 30 -31 30 -10 0
6 8 -1 18 -18 24 -38 40 -50 76 -59 27 -7 27 -8 10 -21 -11 -8 -14 -14 -6 -15
20 0 14 -24 -17 -60 -25 -30 -32 -33 -48 -24 -10 7 -17 19 -15 28 2 9 -1 15
-5 14 -4 -2 -9 1 -10 5 -1 4 -8 14 -15 21 -7 8 -24 28 -38 45 -14 18 -33 40
-42 49 -10 9 -18 20 -18 24 0 4 8 5 18 2 9 -2 6 1 -8 8 -29 14 -41 29 -34 40
3 4 -4 13 -16 20 -11 7 -20 16 -20 21 0 4 4 6 9 3 5 -3 15 2 22 12 12 15 12
16 -1 6 -8 -5 -20 -10 -26 -10 -18 1 -46 35 -38 47 4 7 3 9 -3 6 -14 -9 -37
19 -27 34 4 7 3 10 -2 7 -5 -3 -22 11 -39 30 -16 20 -23 32 -15 28 8 -5 4 2
-10 15 -14 13 -21 22 -15 19 6 -3 -1 6 -15 19 -14 13 -18 20 -10 15 13 -7 13
-5 1 9 -12 15 -11 17 11 17 13 0 30 -6 37 -12 11 -11 12 -10 7 0 -12 20 216
15 241 -5 10 -8 12 -11 4 -7 -10 5 -12 3 -7 -5 5 -7 10 -10 13 -7 8 8 43 -13
43 -25 0 -10 58 -89 74 -101 5 -3 10 -12 12 -20 1 -7 18 -31 38 -52 20 -22 36
-47 36 -55 0 -8 3 -11 7 -8 3 4 14 -6 24 -22 13 -22 24 -29 43 -27 23 3 25 1
14 -13 -12 -14 -11 -14 5 -2 10 8 16 20 13 28 -3 7 0 13 7 13 7 0 18 14 25 30
8 17 17 30 21 30 4 0 8 -32 8 -70 1 -39 -2 -68 -7 -65 -5 3 -11 1 -15 -5 -4
-6 -12 -7 -18 -4 -9 5 -8 3 0 -6 10 -10 10 -17 1 -28 -17 -20 -18 -39 -2 -39
7 0 10 5 7 10 -3 5 0 7 8 5 8 -3 13 -11 12 -17 -2 -6 0 -11 3 -11 12 0 49 24
57 36 4 7 16 11 27 9 12 -2 18 0 15 6 -4 5 -12 6 -18 3 -7 -4 -2 4 10 16 16
17 33 23 71 24 28 1 48 4 45 9 -2 4 3 10 11 13 9 3 13 11 9 18 -3 6 -3 8 2 4
5 -5 13 2 19 14 6 12 18 23 26 25 13 4 13 3 0 -6 -8 -6 -15 -14 -15 -19 0 -17
-50 -80 -59 -75 -5 3 -6 1 -2 -5 8 -14 -17 -55 -27 -45 -4 3 -7 -1 -7 -11 0
-11 -7 -16 -17 -14 -11 2 -17 -2 -15 -10 1 -7 -7 -26 -18 -43 -12 -16 -18 -34
-15 -39 4 -6 -12 -35 -34 -65 l-41 -54 72 -101 c39 -55 77 -100 83 -100 7 0
25 -10 40 -21 24 -20 26 -26 20 -66 -6 -41 -3 -48 40 -109 44 -61 54 -92 22
-66 -8 7 -16 9 -19 6 -3 -3 -5 3 -4 13 0 9 -4 18 -11 18 -6 0 -15 4 -20 9 -5
5 -3 6 5 2 19 -11 14 2 -14 39 -20 27 -25 42 -22 82 3 46 1 49 -30 65 -18 9
-54 44 -79 77 -25 34 -49 58 -54 55 -5 -3 -7 1 -4 8 2 7 -6 25 -18 40 l-22 27
-47 -59 -47 -59 115 -153 c63 -84 128 -161 143 -170 25 -16 49 -18 204 -16
l176 3 -220 293 c-137 182 -217 297 -212 305 4 7 77 107 163 222 86 116 195
263 243 328 95 128 130 157 193 157 77 0 119 -61 112 -160 -3 -56 6 -67 16
-19 21 104 -10 186 -88 234 -43 26 -60 30 -135 32 -62 2 -102 -2 -141 -15z
m178 -14 c8 -8 8 -15 1 -24 -8 -9 -5 -11 13 -8 13 2 5 -3 -17 -10 -22 -8 -34
-15 -26 -15 8 -1 11 -4 8 -7 -4 -4 -13 -1 -22 6 -12 10 -13 16 -4 26 6 8 15
12 19 9 5 -3 11 -1 15 4 3 5 -3 14 -12 20 -15 8 -15 10 -2 11 8 0 20 -5 27
-12z m72 -8 c12 -8 12 -10 -5 -10 -11 0 -27 5 -35 10 -12 8 -12 10 5 10 11 0
27 -5 35 -10z m-204 -7 c-7 -8 -11 -9 -37 -12 -6 0 4 -13 21 -27 17 -15 34
-24 37 -20 4 3 0 6 -8 7 -19 1 20 17 44 18 25 1 22 -36 -4 -44 -11 -4 -18 -9
-15 -12 6 -6 -23 -37 -36 -39 -4 -1 -10 -3 -13 -4 -3 -1 -9 -3 -14 -4 -5 0
-12 -4 -15 -8 -3 -5 -3 -6 1 -3 3 3 13 -1 21 -8 13 -10 14 -9 7 2 -6 10 -4 12
5 6 9 -6 11 -4 5 5 -5 9 -4 11 3 6 15 -9 -36 -76 -58 -76 -12 0 -12 -2 -2 -9
10 -6 10 -10 -2 -20 -8 -7 -19 -10 -24 -7 -5 3 -9 -1 -9 -9 0 -8 5 -11 11 -8
6 3 1 -5 -12 -19 -12 -13 -19 -28 -15 -32 5 -4 4 -7 -2 -6 -20 4 -35 0 -35
-11 0 -5 5 -7 12 -3 7 5 8 3 3 -6 -6 -10 -11 -9 -21 6 -27 39 -37 46 -58 40
-18 -4 -19 -3 -5 7 9 7 14 18 11 26 -2 8 0 11 6 8 5 -4 15 6 22 22 10 24 9 34
-5 58 -9 15 -14 20 -11 11 6 -20 -5 -23 -37 -8 -18 8 -19 8 -6 -1 14 -11 12
-16 -19 -47 -20 -19 -37 -44 -39 -56 -2 -15 10 -7 45 33 30 33 53 51 61 47 8
-5 0 -20 -24 -49 -19 -22 -35 -44 -35 -48 0 -5 -13 -6 -28 -5 -20 3 -35 -3
-51 -21 l-24 -24 21 -6 c30 -7 28 -15 -14 -70 -40 -53 -49 -59 -59 -43 -4 6
10 31 30 55 22 27 33 50 29 57 -5 7 -8 24 -8 38 -1 21 -7 26 -36 30 l-35 5 40
44 c91 101 152 152 173 143 11 -4 13 -2 7 8 -6 10 -4 12 8 7 11 -4 14 -2 10 9
-3 8 -2 14 3 13 21 -4 35 2 29 11 -3 6 3 10 13 10 11 0 25 7 32 15 7 8 16 13
20 10 5 -3 19 -1 32 4 28 12 64 14 54 4z m84 2 c0 -6 -68 -35 -81 -35 -20 0
-7 19 19 28 30 11 62 15 62 7z m-440 -305 c0 -5 -2 -10 -4 -10 -3 0 -8 5 -11
10 -3 6 -1 10 4 10 6 0 11 -4 11 -10z m-20 -15 c16 -19 3 -55 -19 -55 -10 0
-32 -18 -49 -39 -26 -33 -32 -49 -32 -88 1 -38 3 -44 11 -30 7 13 14 15 23 8
6 -5 31 -7 54 -4 40 5 48 12 97 78 29 40 55 83 57 95 5 34 33 49 54 28 21 -20
10 -58 -17 -58 -12 0 -39 -27 -77 -79 l-57 -79 -56 -7 c-53 -6 -59 -10 -89
-51 -29 -42 -33 -44 -49 -30 -14 13 -20 13 -31 3 -12 -10 -12 -9 -1 5 7 10 17
16 21 13 4 -2 15 4 24 14 13 15 17 34 14 83 -2 60 0 67 30 104 18 21 32 48 32
59 0 40 37 58 60 30z m96 -8 c-5 8 -4 13 3 13 6 0 11 -3 12 -7 0 -5 2 -16 4
-26 4 -20 -28 -81 -37 -72 -3 3 -13 -10 -22 -30 -10 -20 -24 -39 -32 -42 -8
-3 -12 -8 -10 -12 3 -4 -8 -6 -22 -5 -15 1 -32 3 -38 3 -5 1 -19 8 -30 16 -19
15 -19 15 1 8 16 -6 18 -4 8 8 -9 11 -7 19 8 38 10 13 19 19 19 14 0 -5 -5
-14 -11 -20 -8 -8 -8 -16 0 -30 6 -10 11 -14 11 -9 0 5 6 3 14 -3 10 -9 20 -9
40 0 14 7 23 15 21 20 -3 4 -1 10 5 14 6 4 7 12 4 18 -4 7 -4 9 0 5 10 -9 47
29 44 45 -2 6 4 11 12 9 8 -2 11 0 7 5 -5 4 -14 8 -20 8 -7 1 -11 7 -9 14 2 8
-3 11 -12 8 -13 -5 -14 -3 -4 12 11 18 12 18 27 2 9 -9 12 -11 7 -4z m-176
-37 c0 -5 -4 -10 -10 -10 -5 0 -10 5 -10 10 0 6 5 10 10 10 6 0 10 -4 10 -10z
m258 -58 c-10 -2 -19 -8 -19 -13 -1 -5 -2 -14 -3 -21 0 -6 -9 -12 -18 -14 -15
-2 -14 2 5 31 14 22 26 31 37 27 13 -5 12 -7 -2 -10z m-567 -124 c7 -14 6 -18
-5 -18 -21 0 -80 77 -64 83 13 5 49 -30 69 -65z m239 -38 c0 -5 -5 -10 -11
-10 -5 0 -7 5 -4 10 3 6 8 10 11 10 2 0 4 -4 4 -10z m95 -227 c-5 -14 -3 -15
6 -6 9 9 19 1 45 -35 19 -26 38 -57 44 -69 5 -13 12 -23 15 -23 4 0 3 5 0 10
-3 6 -4 10 -1 10 3 0 10 -10 17 -22 10 -18 9 -20 -5 -15 -12 5 -27 -3 -46 -24
-27 -30 -29 -30 -39 -12 -7 14 -7 23 2 32 9 10 8 11 -5 6 -11 -4 -18 0 -23 15
-4 12 -9 19 -12 16 -4 -3 -16 8 -29 26 l-23 31 27 38 c30 42 38 48 27 22z
m-89 -112 c-3 -5 1 -11 9 -15 9 -3 13 -14 11 -28 -3 -13 -5 -26 -5 -29 -1 -4
-11 -9 -22 -12 -15 -4 -20 -11 -15 -23 5 -13 4 -14 -7 -6 -8 7 -17 9 -20 5 -4
-3 -9 1 -13 10 -3 10 3 31 15 49 11 18 21 27 21 21 0 -7 5 -13 11 -13 5 0 7 5
4 10 -7 12 0 40 10 40 4 0 4 -4 1 -9z m222 -63 c5 -7 12 -24 14 -38 3 -25 24
-27 21 -1 -1 9 2 10 10 2 7 -7 7 -15 -2 -25 -10 -12 -8 -21 13 -49 18 -23 26
-46 26 -73 0 -22 9 -52 20 -69 21 -32 28 -28 8 5 -10 16 -10 23 4 36 32 32 75
-11 44 -45 -20 -22 -20 -41 -1 -67 17 -22 19 -34 6 -34 -5 0 -26 23 -46 50
-20 28 -41 48 -46 45 -5 -4 -6 0 -3 8 3 8 1 18 -5 21 -5 4 -7 22 -4 40 4 27
-1 43 -27 81 -17 25 -42 50 -55 55 -33 13 -39 29 -19 51 20 22 28 24 42 7z
m-161 -59 c-7 -28 28 -66 68 -73 35 -7 65 -38 65 -66 -1 -10 -8 -6 -21 12 -12
17 -34 30 -55 34 -20 4 -43 18 -57 34 -13 18 -35 30 -55 33 -19 3 -37 9 -40
13 -4 4 1 4 11 1 12 -5 17 -1 17 13 0 10 8 23 17 29 25 13 56 -5 50 -30z m248
-18 c3 -5 0 -13 -6 -17 -7 -4 -9 -3 -5 4 3 6 -2 13 -11 15 -16 4 -16 5 -1 6 9
0 19 -3 23 -8z m-200 -10 c3 -5 2 -12 -3 -15 -5 -3 -9 1 -9 9 0 17 3 19 12 6z
m-78 -28 c-2 -2 8 -16 22 -32 17 -19 28 -25 33 -17 4 6 8 7 8 1 -1 -5 -8 -19
-16 -30 l-16 -20 4 20 c2 14 -3 20 -14 20 -10 0 -18 5 -19 10 -1 6 -10 22 -20
37 -19 26 -19 26 1 21 12 -3 19 -7 17 -10z m293 7 c0 -5 -5 -10 -11 -10 -5 0
-7 5 -4 10 3 6 8 10 11 10 2 0 4 -4 4 -10z m8 -42 c-9 -7 -6 -8 10 -5 13 3 21
3 18 0 -3 -3 2 -12 12 -20 15 -11 13 -12 -16 -8 -20 3 -31 2 -28 -4 4 -5 3
-12 -2 -14 -4 -3 -7 12 -7 33 0 27 3 36 13 32 11 -4 11 -6 0 -14z m-77 -21
c-10 -9 -11 -8 -5 6 3 10 9 15 12 12 3 -3 0 -11 -7 -18z m-101 -22 c7 -8 9
-22 6 -31 -4 -10 8 -33 31 -62 58 -73 57 -72 40 -72 -9 0 -33 25 -54 54 -21
30 -46 57 -55 60 -36 9 -30 66 7 66 7 0 18 -7 25 -15z m102 -27 c-6 -6 -12 -6
-17 3 -5 8 -4 10 3 5 7 -4 12 0 13 11 0 12 2 13 6 5 3 -8 1 -18 -5 -24z m205
-90 c-8 -5 -6 -8 6 -8 11 0 15 -4 11 -12 -5 -8 -2 -9 12 -4 10 4 15 4 11 -1
-5 -4 -26 -8 -48 -9 -35 -1 -44 5 -41 28 1 3 -6 12 -16 20 -16 12 -16 11 -2
-7 14 -18 14 -19 -2 -7 -16 13 -16 16 0 45 l16 32 32 -35 c22 -24 29 -37 21
-42z m-306 5 c13 -16 12 -17 -3 -4 -17 13 -22 21 -14 21 2 0 10 -8 17 -17z
m-831 -131 c0 -5 -17 -14 -39 -20 -48 -15 -48 -15 -54 2 -4 9 -1 13 7 10 7 -3
23 0 37 5 31 12 49 13 49 3z"/>
<path d="M3530 2649 c0 -5 -4 -8 -9 -4 -5 3 -12 1 -16 -5 -3 -5 -11 -10 -16
-10 -6 0 -7 5 -3 12 4 7 3 8 -5 4 -9 -6 -9 -11 0 -22 6 -8 9 -14 6 -14 -3 0
-13 -3 -21 -6 -13 -5 -15 -2 -10 12 4 11 4 16 0 13 -4 -4 -9 -18 -11 -31 -6
-34 25 -63 57 -52 13 4 29 9 37 10 8 2 21 10 30 20 14 15 13 15 -11 -1 -37
-23 -36 -10 2 21 25 22 28 28 17 45 -12 20 -47 26 -47 8z m30 -17 c0 -4 -17
-25 -39 -46 -49 -48 -68 -30 -20 20 31 32 59 44 59 26z"/>
<path d="M3606 2622 c-3 -5 1 -9 9 -9 8 0 12 4 9 9 -3 4 -7 8 -9 8 -2 0 -6 -4
-9 -8z"/>
<path d="M3250 2476 c0 -2 8 -10 18 -17 15 -13 16 -12 3 4 -13 16 -21 21 -21
13z"/>
<path d="M3290 2441 c0 -6 4 -13 10 -16 6 -3 7 1 4 9 -7 18 -14 21 -14 7z"/>
<path d="M3200 2366 c0 -9 7 -16 16 -16 9 0 14 5 12 12 -6 18 -28 21 -28 4z"/>
<path d="M3405 2360 c-4 -6 -3 -16 3 -22 6 -6 12 -6 17 2 4 6 3 16 -3 22 -6 6
-12 6 -17 -2z"/>
<path d="M3151 1847 c-13 -21 -12 -21 5 -5 10 10 16 20 13 22 -3 3 -11 -5 -18
-17z"/>
<path d="M3173 1836 c-4 -5 -1 -6 5 -2 7 4 12 2 12 -3 0 -6 -5 -11 -12 -11 -6
0 -8 -3 -5 -7 4 -3 16 2 26 11 11 10 25 15 32 10 8 -4 10 -3 5 4 -8 13 -55 12
-63 -2z"/>
<path d="M3233 1715 c0 -8 4 -12 9 -9 5 3 6 10 3 15 -9 13 -12 11 -12 -6z"/>
<path d="M3086 1718 c3 -5 10 -6 15 -3 13 9 11 12 -6 12 -8 0 -12 -4 -9 -9z"/>
<path d="M3284 1699 c-7 -12 15 -31 28 -23 9 6 -1 34 -12 34 -5 0 -12 -5 -16
-11z"/>
<path d="M3440 1486 c0 -9 7 -16 16 -16 17 0 14 22 -4 28 -7 2 -12 -3 -12 -12z"/>
<path d="M3116 1673 c-11 -11 -6 -23 9 -23 8 0 15 4 15 9 0 13 -16 22 -24 14z"/>
<path d="M3210 1506 c0 -9 7 -16 16 -16 17 0 14 22 -4 28 -7 2 -12 -3 -12 -12z"/>
<path d="M3495 1450 c-3 -5 -2 -10 4 -10 5 0 13 5 16 10 3 6 2 10 -4 10 -5 0
-13 -4 -16 -10z"/>
<path d="M2425 2700 c-4 -6 -10 -8 -14 -6 -4 3 -8 -1 -8 -9 0 -13 4 -12 19 2
18 16 22 23 14 23 -3 0 -8 -5 -11 -10z"/>
<path d="M3736 2581 c-15 -16 -103 -131 -196 -257 -167 -228 -168 -229 -144
-242 13 -7 24 -17 24 -22 0 -14 -12 -12 -37 5 -21 15 -24 13 -66 -42 -24 -32
-47 -64 -51 -71 -9 -15 423 -594 439 -589 25 8 120 141 165 232 74 146 102
267 102 430 0 142 -16 240 -58 351 -44 117 -113 234 -138 234 -7 0 -25 -13
-40 -29z m59 -20 c-3 -3 -10 1 -15 9 -13 21 -12 3 1 -21 5 -11 14 -17 19 -14
5 3 12 0 16 -6 4 -8 3 -9 -4 -5 -17 10 -16 9 29 -83 41 -85 73 -189 83 -277 3
-27 4 -44 1 -38 -3 7 -15 10 -25 7 -11 -3 -20 0 -20 6 0 5 -6 8 -13 5 -17 -6
-41 21 -32 35 3 7 0 8 -9 5 -21 -8 -20 -14 8 -53 17 -23 25 -28 28 -17 2 12 6
13 21 1 28 -20 13 -78 -31 -121 -19 -19 -41 -34 -47 -34 -20 0 -26 53 -8 67 8
6 12 16 8 22 -3 6 -2 11 4 11 5 0 11 -6 14 -12 3 -7 4 -3 4 9 -1 12 -4 20 -8
18 -3 -3 -9 27 -13 66 -3 39 -11 79 -16 89 -8 15 -6 17 13 13 20 -4 20 -3 4 7
-11 7 -25 26 -33 44 -7 17 -13 25 -14 18 0 -7 -4 -10 -10 -7 -5 3 -18 1 -29
-5 -23 -12 -21 -42 4 -66 9 -9 14 -23 11 -31 -3 -8 -1 -11 5 -8 6 4 8 -2 4
-18 -4 -14 -2 -28 4 -31 6 -4 11 -28 12 -54 1 -44 1 -45 11 -18 13 37 -5 131
-33 169 -22 30 -18 47 12 47 14 0 19 -7 19 -27 0 -16 7 -50 16 -78 16 -52 12
-149 -7 -160 -5 -4 -14 7 -21 22 -19 43 -59 105 -64 100 -3 -2 7 -30 21 -60
14 -31 25 -60 25 -64 0 -16 -56 -64 -65 -56 -4 5 -5 2 -1 -4 7 -12 2 -15 -34
-17 -8 -1 -16 -7 -16 -14 -3 -23 -4 -24 -19 -12 -12 10 -15 9 -16 -6 0 -15 -2
-14 -10 5 -5 14 -8 30 -6 36 3 6 -6 10 -21 10 -19 0 -28 6 -30 20 -2 11 -11
29 -21 39 -9 11 -11 16 -4 13 6 -4 14 -3 18 2 3 6 -4 8 -16 6 -13 -3 -28 0
-34 5 -8 7 -17 4 -27 -8 -15 -16 -21 -53 -9 -49 4 1 17 -8 31 -21 13 -12 29
-21 34 -21 30 4 45 -3 62 -28 9 -15 17 -33 17 -40 0 -7 4 -13 9 -13 4 0 8 5 8
10 0 6 8 13 18 17 37 14 121 75 127 94 6 18 25 18 25 -1 0 -18 -67 -73 -118
-97 -41 -19 -52 -29 -46 -42 19 -47 44 -136 44 -161 0 -16 5 -32 10 -35 6 -3
10 -15 10 -26 0 -15 -6 -20 -22 -17 -20 3 -22 9 -24 73 -1 48 -9 88 -25 125
-24 54 -50 72 -55 37 -1 -9 2 -15 7 -11 5 3 7 10 4 15 -4 5 -4 9 -1 9 10 0 38
-74 43 -110 2 -19 8 -39 14 -45 13 -13 11 -53 -3 -57 -8 -3 -8 -12 3 -36 9
-20 16 -27 21 -19 6 9 8 8 8 -3 0 -13 1 -13 10 0 8 12 10 12 10 1 0 -8 8 -3
20 12 22 28 26 42 8 31 -7 -4 -8 -3 -4 5 4 6 2 18 -4 26 -7 8 -10 26 -8 40 3
14 1 25 -3 25 -5 0 -9 9 -9 19 0 11 -5 23 -10 26 -6 4 -7 11 -4 17 4 6 1 13
-5 17 -6 4 -13 17 -16 29 -3 17 1 22 16 22 10 0 19 5 19 11 0 6 7 8 17 5 10
-4 14 -4 10 0 -8 8 33 40 47 36 4 -1 14 2 21 8 9 8 15 8 20 0 3 -5 11 -10 17
-10 7 0 2 9 -10 20 -13 12 -19 26 -15 36 6 15 8 15 20 -2 7 -10 13 -21 13 -26
0 -22 42 -5 60 25 11 17 20 28 20 22 1 -20 29 40 30 63 0 12 4 22 10 22 6 0 6
9 0 26 -9 22 -8 25 5 20 10 -4 19 2 25 17 7 15 9 -22 6 -119 -2 -102 -8 -151
-19 -173 -9 -17 -11 -28 -5 -25 6 4 5 -2 -2 -15 -6 -12 -26 -31 -43 -41 -39
-24 -28 -26 16 -3 26 13 30 13 20 1 -7 -8 -10 -17 -7 -21 8 -8 -28 -67 -38
-61 -4 3 -8 0 -8 -5 0 -6 5 -11 11 -11 5 0 7 -5 4 -10 -4 -6 -11 -8 -16 -5 -5
3 -6 -2 -2 -11 5 -13 3 -15 -7 -9 -8 5 -11 4 -7 -2 9 -15 -24 -94 -36 -86 -7
4 -8 0 -4 -11 5 -14 3 -17 -8 -12 -8 3 -14 2 -13 -2 3 -15 -22 -63 -37 -68 -8
-3 -13 -9 -12 -13 2 -3 -4 -14 -14 -23 -19 -18 -26 -14 -62 44 -21 34 -22 49
-2 42 8 -4 12 -11 8 -17 -4 -6 -1 -7 7 -2 10 6 10 10 -2 19 -8 6 -12 18 -9 27
8 19 47 69 55 69 13 0 5 -28 -14 -50 -11 -13 -20 -24 -20 -24 0 -1 18 -2 39
-2 22 -1 40 2 39 5 -2 20 3 31 12 26 6 -3 10 3 10 14 0 11 10 36 21 56 16 27
19 39 10 48 -8 8 -11 6 -11 -8 0 -11 -14 -43 -30 -72 -29 -50 -47 -70 -56 -61
-8 9 39 103 58 116 10 7 18 19 18 25 0 7 -7 4 -15 -7 -20 -26 -39 -16 -20 11
11 16 24 21 49 19 26 -2 33 1 31 13 -1 9 3 19 9 23 7 5 6 8 -4 8 -9 0 -32 -11
-53 -25 -36 -25 -37 -25 -37 -5 0 12 3 19 8 16 4 -2 18 2 32 11 14 8 17 12 7
9 -37 -12 -36 6 3 58 22 29 40 58 40 64 0 5 5 12 12 14 6 2 9 10 7 17 -3 7
-20 -10 -39 -40 -82 -124 -83 -126 -93 -240 -1 -9 -6 -15 -12 -12 -16 6 -65
-46 -65 -68 0 -11 -2 -19 -4 -19 -2 0 -12 -3 -21 -7 -14 -5 -16 -2 -11 18 3
13 3 18 0 11 -5 -10 -9 -10 -20 -1 -11 9 -12 15 -3 26 9 11 9 12 -5 7 -10 -4
-18 0 -22 10 -3 9 -21 32 -39 51 -18 20 -40 54 -50 75 -10 23 -22 37 -29 33
-6 -3 -5 0 2 8 17 19 16 69 -3 69 -18 0 -20 -16 -2 -23 9 -3 8 -8 -3 -20 -14
-15 -17 -13 -33 15 -14 24 -15 28 -2 18 16 -13 20 -3 7 17 -4 7 -18 11 -30 8
-14 -2 -22 1 -22 11 0 8 -4 14 -9 14 -5 0 -12 13 -16 30 -4 16 -12 28 -18 27
-6 -1 -11 3 -12 10 0 6 -3 15 -7 18 -4 4 3 16 15 26 12 10 18 18 14 19 -5 0 0
14 10 31 15 26 22 30 49 26 41 -7 56 8 42 39 -6 13 -15 21 -20 18 -5 -4 -4 3
3 14 7 12 16 19 20 16 4 -2 10 11 13 30 6 30 9 33 34 28 15 -3 36 -11 47 -18
26 -18 32 -18 38 5 4 18 9 19 40 10 40 -11 79 -8 89 6 4 6 8 22 8 37 0 27 -2
28 -40 23 -36 -5 -40 -3 -46 21 -9 37 28 66 74 58 39 -7 43 9 7 32 -14 9 -25
23 -25 30 0 8 -5 14 -11 14 -6 0 -9 -7 -6 -15 9 -22 -7 -26 -21 -5 -9 14 -8
21 3 30 8 7 12 17 8 24 -4 6 1 5 10 -3 15 -12 17 -12 12 1 -9 22 64 126 78
112 2 -3 7 2 11 11 4 11 2 14 -7 10 -6 -4 -3 1 7 9 15 12 23 13 33 4 7 -6 11
-13 8 -17z m-187 -201 c-3 -17 -1 -33 4 -36 13 -8 -1 -24 -23 -24 -24 0 -25
-16 -1 -29 11 -7 12 -10 3 -11 -8 0 -11 -7 -7 -17 3 -10 -5 -4 -19 12 -27 32
-33 57 -12 53 6 -2 11 3 9 11 -3 12 0 12 12 2 13 -11 15 -9 11 9 -4 19 13 60
24 60 2 0 1 -14 -1 -30z m72 -11 c0 -5 -9 -9 -20 -9 -11 0 -23 0 -27 -1 -4 0
-9 3 -10 8 -2 4 11 8 27 9 17 1 30 -3 30 -7z m238 -54 c-3 -3 -9 2 -12 12 -6
14 -5 15 5 6 7 -7 10 -15 7 -18z m-381 -49 c-3 -8 2 -20 11 -28 15 -12 16 -11
3 5 -14 18 -2 24 15 7 13 -13 46 -2 38 12 -8 12 38 -13 48 -27 5 -6 8 -5 8 3
0 6 7 12 16 12 9 0 14 -7 12 -17 -4 -21 -66 -30 -95 -14 -20 10 -58 -10 -45
-24 4 -4 -8 0 -26 11 -18 10 -28 20 -22 22 6 2 6 10 -1 24 -6 11 -7 18 -2 15
5 -3 15 -2 23 4 20 12 23 11 17 -5z m-37 -263 c0 -18 -6 -16 -35 13 -32 32
-22 54 11 23 13 -12 24 -28 24 -36z m245 -53 c-3 -5 -12 -10 -18 -10 -7 0 -6
4 3 10 19 12 23 12 15 0z m75 -230 c-8 -5 -19 -10 -25 -10 -5 0 -3 5 5 10 8 5
20 10 25 10 6 0 3 -5 -5 -10z"/>
<path d="M3705 2499 c-4 -6 -5 -12 -2 -15 2 -3 7 2 10 11 7 17 1 20 -8 4z"/>
<path d="M3756 2413 c-12 -12 -6 -45 14 -70 11 -14 20 -34 20 -43 0 -17 28
-36 37 -26 6 6 -34 83 -47 91 -6 4 -8 15 -5 25 6 19 -7 35 -19 23z"/>
<path d="M3885 2229 c-4 -6 -5 -12 -2 -15 2 -3 7 2 10 11 7 17 1 20 -8 4z"/>
<path d="M3845 2039 c-4 -6 -5 -12 -2 -15 2 -3 7 2 10 11 7 17 1 20 -8 4z"/>
<path d="M3375 2010 c-3 -6 1 -7 9 -4 18 7 21 14 7 14 -6 0 -13 -4 -16 -10z"/>
<path d="M3599 1978 c7 -9 9 -23 5 -30 -6 -10 -4 -11 7 0 11 10 10 15 -6 30
-17 15 -18 15 -6 0z"/>
<path d="M3487 1926 c-4 -10 -1 -13 8 -10 13 5 39 -28 30 -38 -4 -4 35 -3 42
1 0 1 -12 15 -27 31 -31 33 -45 37 -53 16z"/>
<path d="M3850 1920 c0 -5 5 -10 10 -10 6 0 10 5 10 10 0 6 -4 10 -10 10 -5 0
-10 -4 -10 -10z"/>
<path d="M3757 1813 c3 -7 6 -13 8 -13 2 0 5 6 8 13 3 8 -1 14 -8 14 -7 0 -11
-6 -8 -14z"/>
<path d="M3863 1797 c-7 -7 -19 -18 -28 -26 -9 -7 -14 -15 -11 -18 3 -3 20 8
38 26 17 17 28 31 22 31 -5 -1 -14 -6 -21 -13z"/>
<path d="M3483 1756 c-9 -11 -9 -15 0 -19 7 -3 14 3 14 14 2 22 2 22 -14 5z"/>
<path d="M3880 1730 c0 -5 5 -10 10 -10 6 0 10 5 10 10 0 6 -4 10 -10 10 -5 0
-10 -4 -10 -10z"/>
<path d="M3504 1679 c-3 -6 -2 -15 3 -20 5 -5 9 -1 9 11 0 23 -2 24 -12 9z"/>
<path d="M2252 2567 c1 -14 7 -23 12 -20 5 4 7 -1 3 -10 -4 -11 -2 -14 7 -11
14 5 60 -59 61 -86 1 -8 6 -14 12 -13 5 1 16 -10 24 -25 8 -15 22 -33 32 -40
9 -7 14 -18 11 -24 -4 -7 -2 -8 4 -4 7 4 12 1 12 -9 0 -9 5 -13 10 -10 6 3 10
-3 10 -14 0 -21 -19 -20 -47 1 -7 5 -21 7 -33 3 -29 -9 -25 2 8 19 37 20 13
20 -27 0 -39 -20 -49 -13 -31 23 13 27 14 27 18 5 3 -19 5 -20 18 -7 17 16 11
35 -11 35 -8 0 -12 6 -9 13 3 8 -3 20 -12 28 -10 8 -15 9 -11 2 4 -7 0 -17
-10 -23 -15 -10 -15 -11 -1 -6 9 2 19 -2 22 -10 3 -8 1 -14 -3 -14 -5 0 -14
-14 -20 -31 -6 -17 -15 -28 -21 -24 -6 4 -18 1 -28 -7 -9 -7 -6 0 6 17 17 21
22 40 20 68 -1 25 3 41 12 47 8 6 10 10 5 10 -6 0 -16 -5 -23 -12 -9 -9 -12
-9 -12 0 0 6 8 16 18 21 14 9 13 10 -8 7 -14 -2 -24 -9 -22 -17 2 -9 -1 -9
-14 2 -9 8 -20 13 -23 13 -3 -1 -5 2 -3 8 1 5 -2 7 -7 3 -6 -3 -7 -13 -4 -22
4 -10 2 -14 -4 -10 -10 7 -28 -19 -25 -35 1 -5 -3 -8 -9 -8 -6 0 -7 -5 -2 -12
8 -13 13 -33 15 -55 1 -7 5 -10 10 -7 4 3 5 -2 2 -10 -3 -9 -11 -13 -17 -9 -6
3 -7 1 -3 -6 4 -6 12 -9 17 -6 5 4 9 1 9 -4 0 -6 -4 -11 -8 -11 -5 0 -17 -15
-27 -34 -11 -19 -22 -33 -26 -31 -7 5 -18 -49 -21 -105 -1 -27 -3 -22 -8 20
l-7 55 0 -65 c0 -36 -4 -76 -8 -90 -7 -23 -7 -23 9 -7 9 9 21 44 27 77 5 33
14 71 19 86 15 39 61 94 78 94 12 0 9 -7 -10 -27 -37 -40 -57 -85 -64 -140 -6
-57 10 -40 20 22 9 49 33 88 48 79 7 -5 9 -2 5 9 -4 10 0 18 11 21 42 13 76
14 95 5 15 -9 18 -8 11 3 -6 11 -5 11 8 0 11 -9 18 -10 23 -2 8 14 -15 22 -69
24 -25 1 -48 4 -51 8 -13 12 59 25 85 16 13 -5 35 -6 47 -3 30 7 44 -22 20
-40 -10 -7 -17 -21 -17 -31 0 -10 -16 -32 -35 -47 -33 -26 -35 -32 -29 -65 9
-54 21 -59 17 -8 -3 38 0 47 24 66 15 12 33 35 40 51 11 27 15 29 35 19 21
-10 22 -10 5 4 -18 14 -18 15 1 25 15 8 24 6 41 -13 12 -12 18 -26 14 -29 -3
-4 -7 -43 -8 -88 0 -59 -5 -83 -15 -89 -10 -6 -11 -10 -3 -10 7 0 10 -7 7 -15
-4 -8 -10 -15 -16 -15 -5 0 -7 4 -4 8 3 5 -7 7 -23 4 -21 -3 -30 2 -37 19 -7
15 -13 19 -18 11 -4 -7 -2 -12 3 -12 6 0 11 -4 11 -9 0 -17 -59 10 -80 36 -11
14 -20 37 -20 50 0 14 -4 21 -10 18 -5 -3 -10 -1 -10 4 0 25 -29 8 -38 -21
-22 -77 -10 -104 37 -78 13 6 28 4 52 -9 19 -10 64 -21 101 -24 l66 -6 7 75
c4 41 5 88 1 105 -3 16 -2 28 3 25 5 -3 11 4 14 15 4 16 -24 62 -113 184 -66
89 -126 168 -135 175 -13 11 -15 9 -13 -13z m-13 -137 c10 -5 21 -17 25 -25 6
-16 -30 -105 -43 -105 -4 0 -16 19 -28 43 -21 44 -18 70 11 89 14 10 14 10 35
-2z m52 -344 c15 -32 14 -34 -5 -34 -12 0 -27 -1 -35 -3 -16 -5 -21 28 -10 59
11 28 30 19 50 -22z"/>
<path d="M2207 2403 c-14 -13 -6 -33 13 -33 13 0 20 7 20 20 0 19 -20 27 -33
13z"/>
<path d="M2580 2507 c0 -10 -4 -16 -8 -13 -4 2 -8 -6 -8 -19 0 -13 4 -21 8
-19 5 3 7 -11 5 -30 -4 -30 -2 -34 10 -25 11 9 19 7 38 -11 13 -13 21 -28 18
-34 -4 -6 1 -5 9 2 10 8 14 20 11 30 -6 15 -5 15 10 3 14 -11 15 -16 4 -25 -7
-6 -20 -20 -27 -30 -13 -18 -13 -19 2 -14 11 5 24 -5 42 -33 26 -38 40 -46 62
-31 15 10 25 42 13 42 -6 0 -8 4 -5 8 3 5 -4 15 -15 22 -10 8 -19 21 -19 29 0
8 -3 12 -6 9 -9 -9 -42 26 -35 37 9 17 10 35 1 40 -5 3 -7 -3 -5 -15 2 -11 0
-22 -6 -25 -8 -5 -13 7 -11 26 1 3 -13 21 -29 39 -24 25 -27 35 -17 41 9 6 9
9 1 9 -6 0 -15 -5 -19 -11 -4 -8 -9 -7 -15 2 -7 11 -9 10 -9 -4z m54 -61 c29
-39 31 -46 14 -46 -12 0 -68 62 -68 74 0 18 31 1 54 -28z m119 -168 c-8 -15
-21 -8 -47 27 -39 50 -21 67 19 19 18 -22 31 -42 28 -46z"/>
<path d="M2286 2497 c3 -10 9 -15 12 -12 3 3 0 11 -7 18 -10 9 -11 8 -5 -6z"/>
<path d="M2656 2458 c3 -5 10 -6 15 -3 13 9 11 12 -6 12 -8 0 -12 -4 -9 -9z"/>
<path d="M2725 2160 c-4 -6 -10 -8 -15 -5 -5 3 -11 1 -14 -4 -8 -13 22 -7 36
7 7 7 9 12 6 12 -4 0 -10 -5 -13 -10z"/>
<path d="M2171 2103 c-15 -53 -14 -63 9 -63 11 0 20 5 20 11 0 5 -4 8 -9 4 -5
-3 -13 0 -16 6 -4 6 2 13 13 16 27 7 37 63 11 63 -12 0 -21 -12 -28 -37z m26
-5 c-3 -8 -6 -5 -6 6 -1 11 2 17 5 13 3 -3 4 -12 1 -19z"/>
<path d="M2995 2060 c-3 -6 1 -7 9 -4 18 7 21 14 7 14 -6 0 -13 -4 -16 -10z"/>
<path d="M2130 2050 c-8 -5 -12 -12 -9 -15 4 -3 12 1 19 10 14 17 11 19 -10 5z"/>
<path d="M3007 2043 c-2 -5 -7 -21 -11 -36 -4 -18 -11 -25 -19 -21 -7 4 -9 3
-4 -1 4 -5 -1 -18 -11 -29 -24 -26 -35 -56 -21 -56 6 0 8 -4 5 -9 -11 -16 43
-8 62 10 11 10 23 15 28 11 4 -4 4 -2 1 4 -7 13 37 77 46 67 7 -6 9 0 11 30 1
6 -3 12 -9 13 -5 0 -23 6 -38 12 -33 14 -35 14 -40 5z m23 -7 c0 -3 -4 -8 -10
-11 -5 -3 -10 -1 -10 4 0 6 5 11 10 11 6 0 10 -2 10 -4z m33 -22 c7 -7 -73
-114 -85 -114 -22 0 -15 26 19 70 36 47 52 58 66 44z"/>
<path d="M2171 2008 c11 -20 30 -20 36 -1 2 6 -7 13 -21 15 -22 4 -24 3 -15
-14z"/>
<path d="M2298 2020 c12 -5 22 -12 22 -14 0 -3 -6 -3 -14 0 -10 4 -14 -1 -13
-15 1 -13 5 -17 11 -11 6 6 16 5 28 -1 13 -7 26 -5 45 6 l28 16 -31 -5 c-23
-4 -37 0 -49 14 -10 11 -25 20 -34 19 -10 0 -8 -3 7 -9z"/>
<path d="M2785 2021 c-3 -5 -2 -12 3 -15 5 -3 9 1 9 9 0 17 -3 19 -12 6z"/>
<path d="M2100 2010 c0 -12 33 -45 71 -71 20 -14 24 -26 25 -70 1 -30 4 -61 7
-69 3 -8 8 -22 10 -30 3 -8 3 23 0 69 -6 83 -21 121 -49 121 -7 0 -24 14 -38
31 -14 17 -26 25 -26 19z"/>
<path d="M3092 1955 c-17 -37 -14 -45 4 -12 9 16 14 31 11 33 -2 2 -9 -7 -15
-21z"/>
<path d="M2315 1960 c-3 -5 -1 -10 4 -10 6 0 11 5 11 10 0 6 -2 10 -4 10 -3 0
-8 -4 -11 -10z"/>
<path d="M2220 1909 c0 -24 30 -190 37 -202 3 -5 9 -4 13 4 5 7 2 18 -6 26 -8
8 -14 23 -14 32 0 10 -3 33 -7 51 -5 26 -3 32 8 28 8 -3 13 -10 12 -16 -2 -6
3 -9 10 -6 7 2 21 -2 32 -10 19 -14 19 -15 2 -33 -18 -20 -24 -93 -8 -93 5 0
9 13 9 28 -1 15 4 37 11 49 6 12 11 33 11 47 0 26 -21 48 -28 28 -6 -18 -43
12 -64 51 -10 18 -17 25 -18 16z"/>
<path d="M2902 1902 c-7 -5 -10 -15 -7 -23 6 -15 -43 -66 -57 -61 -5 1 -7 -1
-7 -5 1 -5 1 -17 0 -28 -1 -15 -3 -17 -10 -7 -7 11 -9 10 -14 -3 -4 -9 -3 -13
2 -10 5 3 12 -4 16 -15 3 -11 13 -20 21 -20 8 0 12 -4 9 -10 -3 -6 1 -7 9 -4
8 3 18 14 21 24 4 13 14 17 39 16 19 -2 33 2 33 9 0 13 -25 16 -42 6 -6 -3 0
3 13 15 13 11 24 27 25 35 2 8 7 20 11 28 6 10 5 12 -2 7 -7 -4 -12 -2 -12 3
0 6 -7 11 -16 11 -8 0 -12 4 -9 10 4 6 -1 7 -12 3 -16 -6 -16 -5 -4 10 15 19
13 21 -7 9z m39 -63 c6 -12 7 -19 1 -15 -8 5 -42 -31 -73 -77 -4 -6 -14 -7
-23 -4 -14 6 -10 16 25 62 23 30 45 55 50 55 4 0 13 -10 20 -21z"/>
<path d="M2166 1835 c-9 -26 -7 -32 5 -12 6 10 9 21 6 23 -2 3 -7 -2 -11 -11z"/>
<path d="M2396 1803 c-6 -14 -5 -15 5 -6 7 7 10 15 7 18 -3 3 -9 -2 -12 -12z"/>
<path d="M2145 1770 c10 -11 22 -20 26 -20 5 0 1 9 -8 20 -10 11 -22 20 -27
20 -5 0 -1 -9 9 -20z"/>
<path d="M2142 1741 c4 -16 108 -74 108 -61 0 5 -21 18 -47 30 -26 11 -51 26
-56 33 -6 9 -8 8 -5 -2z"/>
<path d="M2204 1735 c26 -19 42 -19 26 0 -7 8 -20 15 -29 15 -13 -1 -13 -3 3
-15z"/>
<path d="M2750 1736 c0 -2 7 -7 16 -10 8 -3 12 -2 9 4 -6 10 -25 14 -25 6z"/>
<path d="M2677 1709 c7 -7 15 -10 18 -7 3 3 -2 9 -12 12 -14 6 -15 5 -6 -5z"/>
<path d="M2770 1695 c-7 -8 -17 -12 -23 -8 -5 3 -7 1 -4 -4 4 -6 -8 -26 -25
-44 -18 -19 -33 -38 -33 -44 -1 -5 -7 -9 -14 -7 -7 1 -9 -2 -6 -8 5 -8 14 -5
28 7 11 10 17 12 13 5 -4 -7 -1 -15 8 -18 9 -3 13 -11 9 -18 -4 -6 5 -3 19 6
15 10 28 14 31 10 2 -4 2 -1 1 6 -2 6 10 27 26 46 32 36 37 55 18 74 -16 16
-33 15 -48 -3z m40 -17 c0 -5 -14 -29 -32 -52 -17 -22 -33 -43 -35 -45 -2 -3
-8 0 -15 7 -8 8 -1 24 27 61 33 46 55 58 55 29z"/>
<path d="M2840 1696 c0 -2 7 -7 16 -10 8 -3 12 -2 9 4 -6 10 -25 14 -25 6z"/>
<path d="M2886 1642 c-3 -5 1 -15 8 -21 11 -10 14 -9 12 3 -3 21 -13 29 -20
18z"/>
<path d="M2257 1606 c-4 -10 -3 -15 3 -11 6 3 10 1 10 -6 0 -7 3 -10 6 -6 3 3
2 13 -4 22 -8 16 -9 16 -15 1z"/>
<path d="M2925 1514 c-118 -162 -230 -260 -353 -310 l-53 -21 66 -32 c150 -70
289 -96 463 -88 70 3 149 14 197 26 99 26 247 97 334 159 l66 47 -185 5 c-241
7 -226 -1 -380 207 -41 56 -77 102 -80 102 -3 0 -36 -43 -75 -95z m85 -19 l0
-75 62 0 c63 0 71 -14 13 -23 -27 -4 -26 -4 8 -6 23 0 36 -6 35 -13 -2 -7 5
-12 14 -13 9 0 26 -10 38 -22 11 -13 26 -23 32 -23 6 0 5 -6 -3 -17 -13 -15
-12 -15 7 -5 21 11 34 7 34 -9 0 -5 -8 -5 -17 -2 -15 6 -16 5 -3 -9 13 -15 17
-15 26 -2 14 18 25 18 18 0 -4 -11 3 -12 38 -5 47 9 108 11 74 2 -15 -4 -16
-7 -5 -13 7 -5 21 -4 31 1 10 6 23 7 29 4 5 -4 15 -2 22 3 13 11 46 10 65 -2
6 -4 12 -3 12 2 0 5 7 9 15 9 14 0 14 -2 0 -16 -12 -13 -20 -13 -48 -3 -27 9
-29 9 -15 -2 10 -7 15 -16 11 -20 -4 -4 1 -4 12 -1 19 6 19 6 1 -6 -16 -10
-21 -9 -31 5 -7 9 -16 16 -20 16 -4 0 -2 -7 5 -15 17 -20 4 -34 -36 -38 -29
-4 -74 -23 -74 -33 0 -2 14 2 30 11 17 9 30 13 30 11 0 -8 -64 -40 -73 -38 -4
1 -17 -3 -28 -9 -22 -12 -55 -21 -81 -22 -10 -1 -18 -4 -18 -7 0 -3 -9 -6 -20
-7 -17 -2 -18 1 -10 17 15 28 12 32 -8 13 -11 -10 -17 -21 -16 -24 3 -6 -87
-29 -116 -29 -10 0 -21 6 -23 13 -4 9 -8 8 -17 -3 -9 -11 -13 -12 -17 -2 -2 6
-9 12 -14 12 -6 0 -7 -4 -4 -10 4 -6 -6 -10 -22 -10 -40 1 -135 24 -128 32 4
3 1 9 -6 14 -7 4 -10 3 -6 -3 4 -6 0 -14 -8 -17 -13 -5 -60 9 -145 41 -8 3
-20 7 -27 8 -20 5 -49 24 -35 25 7 0 10 5 7 11 -4 6 0 9 11 7 11 -2 18 2 17 9
-2 7 4 10 12 7 10 -4 15 0 16 12 0 11 3 14 6 7 3 -8 15 -11 31 -8 16 3 21 2
12 -2 -40 -21 -15 -43 60 -56 37 -6 32 -3 -39 24 -23 9 -23 10 -6 29 10 11 15
23 12 27 -4 3 -7 1 -7 -5 0 -6 -7 -9 -15 -6 -8 4 -15 10 -15 15 0 5 7 9 15 9
8 0 15 5 15 11 0 8 4 8 15 -1 8 -6 19 -9 24 -6 5 4 12 2 16 -4 8 -12 55 -14
55 -1 0 4 -11 6 -25 3 -17 -3 -25 0 -23 8 2 7 -5 14 -15 15 -10 2 -14 -1 -11
-7 4 -7 2 -8 -5 -4 -14 9 -5 26 15 26 8 0 14 3 14 8 0 4 18 27 40 51 22 25 40
48 40 53 0 4 27 8 60 8 l60 0 0 75 c0 43 4 75 10 75 6 0 10 -32 10 -75z m-30
-12 c0 -41 -3 -54 -10 -43 -6 10 -10 11 -10 3 0 -7 -5 -13 -11 -13 -5 0 -7 6
-3 13 5 8 2 7 -10 -2 -31 -25 -38 2 -8 34 15 16 26 33 24 38 -1 5 2 6 8 2 5
-3 10 1 10 9 0 9 2 16 5 16 3 0 5 -26 5 -57z m80 10 c0 -7 5 -13 11 -13 7 0 9
-9 6 -21 -4 -16 -3 -18 8 -9 9 8 14 7 18 -3 4 -11 -5 -14 -39 -14 l-44 0 0 55
c0 54 0 55 20 37 11 -10 20 -24 20 -32z"/>
<path d="M2923 1393 l58 -4 -3 -67 -3 -67 -45 -6 -45 -6 55 -2 55 -1 -3 80 -4
80 -61 -2 -62 -2 58 -3z"/>
<path d="M3010 1379 c0 -11 5 -17 10 -14 6 4 8 10 5 15 -3 4 1 11 7 13 8 3 6
6 -4 6 -12 1 -18 -6 -18 -20z"/>
<path d="M3012 1298 l-2 -58 33 1 c29 2 30 2 5 6 -25 4 -27 9 -31 56 l-3 52
-2 -57z"/>
<path d="M3158 1253 c12 -2 30 -2 40 0 9 3 -1 5 -23 4 -22 0 -30 -2 -17 -4z"/>
<path d="M3394 1224 c-22 -19 -30 -31 -19 -26 20 10 73 62 63 62 -3 0 -23 -16
-44 -36z"/>
<path d="M3256 1235 c4 -8 10 -15 16 -15 5 0 6 5 2 12 -4 7 -3 8 4 4 7 -4 20
-2 29 3 15 8 11 10 -19 11 -29 0 -36 -3 -32 -15z"/>
<path d="M2785 1210 c19 -36 28 -40 15 -6 -7 20 -6 26 8 29 10 3 5 5 -11 6
-27 1 -27 1 -12 -29z"/>
<path d="M3201 1210 c-5 -16 -9 -30 -7 -30 1 0 12 14 24 30 17 22 19 30 8 30
-8 0 -19 -13 -25 -30z"/>
<path d="M2863 1223 c15 -2 37 -2 50 0 12 2 0 4 -28 4 -27 0 -38 -2 -22 -4z"/>
<path d="M3013 1170 c0 -36 2 -50 4 -32 2 17 2 47 0 65 -2 17 -4 3 -4 -33z"/>
<path d="M3090 1220 l-25 -8 25 0 c14 0 36 4 50 8 l25 8 -25 0 c-14 0 -36 -4
-50 -8z"/>
<path d="M3445 1220 c3 -5 8 -10 11 -10 2 0 4 5 4 10 0 6 -5 10 -11 10 -5 0
-7 -4 -4 -10z"/>
<path d="M2983 1165 c0 -33 2 -45 4 -27 2 18 2 45 0 60 -2 15 -4 0 -4 -33z"/>
<path d="M3236 1203 c-6 -14 -5 -15 5 -6 7 7 10 15 7 18 -3 3 -9 -2 -12 -12z"/>
<path d="M2647 1188 c7 -8 9 -19 5 -23 -4 -5 1 -5 11 -2 9 4 17 2 17 -4 0 -6
6 -9 14 -6 8 3 16 2 18 -2 2 -4 14 -4 28 0 24 7 24 7 2 8 -12 1 -42 11 -65 22
-28 15 -38 17 -30 7z"/>
<path d="M2610 1176 c0 -2 7 -7 16 -10 8 -3 12 -2 9 4 -6 10 -25 14 -25 6z"/>
<path d="M2820 1172 c0 -5 7 -15 15 -22 8 -7 15 -9 15 -6 0 4 -7 14 -15 22 -8
9 -15 11 -15 6z"/>
<path d="M3161 1163 c-7 -8 -11 -16 -8 -19 2 -2 10 2 17 11 17 20 9 27 -9 8z"/>
<path d="M3330 1166 c0 -2 7 -7 16 -10 8 -3 12 -2 9 4 -6 10 -25 14 -25 6z"/>
<path d="M3294 1144 c-18 -14 -18 -15 4 -4 12 6 22 13 22 15 0 8 -5 6 -26 -11z"/>
<path d="M2280 1561 c0 -6 4 -13 10 -16 6 -3 7 1 4 9 -7 18 -14 21 -14 7z"/>
<path d="M2657 1554 c5 -13 3 -15 -8 -9 -8 4 -11 5 -7 1 8 -10 -23 -47 -34
-40 -4 3 -5 -3 -1 -12 5 -13 3 -15 -8 -9 -8 4 -11 5 -7 0 4 -4 3 -14 -3 -22
-9 -10 -8 -17 1 -28 14 -17 50 -20 50 -4 0 5 5 7 10 4 6 -3 10 -1 10 5 0 6 5
8 12 4 6 -4 8 -3 5 3 -4 6 3 22 14 37 11 14 18 30 14 36 -4 6 1 7 12 4 11 -4
9 1 -7 12 -14 10 -27 19 -30 19 -3 0 -11 4 -17 8 -9 6 -11 3 -6 -9z m15 -61
c-31 -43 -59 -66 -67 -54 -9 15 67 103 78 92 6 -6 2 -21 -11 -38z"/>
<path d="M2561 1503 c7 -12 15 -20 18 -17 3 2 -3 12 -13 22 -17 16 -18 16 -5
-5z"/>
<path d="M2540 1415 c0 -8 -7 -15 -15 -15 -8 0 -15 -4 -15 -10 0 -5 -5 -10
-11 -10 -5 0 -7 6 -3 13 4 6 5 10 1 7 -3 -3 -6 -9 -7 -15 -1 -5 -10 -20 -21
-31 -18 -19 -18 -23 -5 -37 8 -8 12 -17 9 -20 -3 -4 9 -1 26 6 17 6 46 26 63
44 l31 33 -26 24 c-19 18 -27 21 -27 11z m30 -31 c0 -3 -11 -15 -25 -26 -14
-11 -22 -24 -19 -30 4 -7 2 -8 -5 -4 -6 4 -18 3 -26 -4 -10 -8 -15 -8 -21 1
-4 6 0 16 10 21 9 5 13 14 10 20 -4 6 -3 8 3 5 6 -4 19 0 29 8 20 15 44 20 44
9z"/>
<path d="M2215 1280 c3 -5 13 -10 22 -10 9 0 25 -8 35 -17 15 -13 21 -14 31
-4 9 10 8 11 -5 6 -13 -5 -18 -2 -18 10 0 9 -4 13 -10 10 -5 -3 -10 -1 -10 4
0 6 -12 11 -26 11 -14 0 -23 -4 -19 -10z"/>
<path d="M2880 695 l0 -235 45 0 45 0 0 235 0 235 -45 0 -45 0 0 -235z m64
-15 c-2 -218 0 -201 -19 -194 -13 6 -15 36 -15 210 1 123 5 202 11 199 5 -4 9
0 10 7 1 7 4 2 8 -12 4 -14 6 -108 5 -210z"/>
<path d="M1910 903 c0 -5 38 -55 85 -111 l84 -104 -86 -106 c-48 -59 -91 -110
-97 -114 -6 -4 21 -8 60 -8 l70 0 58 79 59 79 59 -79 60 -79 65 0 c51 0 63 3
56 13 -5 6 -47 58 -92 114 l-82 102 85 104 c47 58 86 108 86 111 0 3 -26 6
-58 6 l-59 0 -57 -72 c-32 -40 -62 -73 -67 -73 -5 0 -9 -3 -9 -7 0 -5 0 -11 0
-14 0 -4 11 1 25 10 23 15 24 15 18 -1 -5 -15 -3 -14 10 2 9 11 17 25 17 31 0
5 7 19 15 30 11 14 14 15 9 3 -3 -10 0 -20 7 -25 8 -4 10 -3 5 4 -7 12 19 71
32 74 4 0 19 2 35 3 25 2 26 1 12 -15 -8 -9 -15 -22 -15 -29 0 -8 -6 -11 -16
-7 -8 3 -12 2 -9 -4 3 -6 1 -10 -4 -10 -6 0 -11 -6 -11 -12 -1 -20 -49 -70
-60 -63 -6 3 -7 -1 -4 -10 4 -10 -1 -21 -12 -30 -11 -7 -16 -17 -11 -21 4 -4
7 -2 7 5 0 7 5 9 10 6 6 -4 8 -11 5 -16 -4 -5 -1 -9 5 -9 6 0 8 -4 5 -10 -3
-5 1 -10 9 -10 10 0 15 -8 13 -22 -1 -17 3 -22 17 -20 13 2 16 0 10 -10 -12
-19 -14 -39 -3 -32 5 3 7 10 4 15 -14 22 16 7 32 -17 10 -14 26 -34 36 -45 9
-10 16 -19 15 -20 -38 -11 -92 4 -85 25 2 5 -12 24 -31 42 -20 19 -32 39 -29
47 3 7 -1 14 -9 14 -7 0 -10 -5 -7 -10 3 -6 1 -7 -5 -3 -6 4 -9 13 -5 22 4 12
1 13 -23 3 -16 -6 -30 -9 -31 -7 -1 2 -5 -1 -10 -6 -5 -5 -2 -6 7 -2 12 6 12
5 -1 -6 -8 -7 -24 -27 -34 -45 -10 -18 -22 -30 -26 -28 -11 8 -31 -23 -23 -36
4 -8 3 -9 -4 -5 -7 4 -12 2 -12 -3 0 -6 -5 -11 -11 -11 -5 0 -7 6 -3 13 6 9 4
9 -7 1 -21 -17 -52 -14 -38 3 6 7 16 10 22 6 6 -4 8 0 4 10 -3 9 1 21 11 29
15 11 15 11 5 -3 -10 -13 -10 -16 1 -16 8 0 13 8 11 17 -2 9 1 23 5 30 7 12
12 11 28 -4 15 -13 22 -14 28 -5 4 7 3 10 -4 5 -6 -3 -13 -2 -16 3 -4 5 -2 13
4 16 8 5 7 11 -1 21 -9 11 -8 15 5 20 24 9 46 57 39 84 -5 17 -3 21 7 15 9 -5
11 -4 6 4 -6 9 -11 9 -24 -1 -9 -7 -13 -8 -9 -2 4 7 0 17 -8 24 -8 7 -12 17
-8 23 4 6 1 7 -7 2 -10 -6 -12 -4 -7 8 4 12 2 14 -11 10 -15 -6 -16 -5 -2 12
10 13 11 16 2 11 -15 -9 -55 21 -47 35 3 4 0 11 -6 15 -8 5 -9 3 -4 -6 5 -9 4
-11 -3 -6 -23 14 -12 26 19 21 23 -4 29 -2 23 7 -4 7 2 4 13 -7 11 -11 19 -23
16 -27 -2 -4 12 -24 31 -44 19 -21 32 -42 29 -48 -3 -6 2 -4 12 5 16 16 14 20
-35 83 l-52 66 -59 0 c-32 0 -59 -3 -59 -7z m140 -307 c0 -3 -4 -8 -10 -11 -5
-3 -10 -1 -10 4 0 6 5 11 10 11 6 0 10 -2 10 -4z"/>
<path d="M2440 686 l0 -226 45 0 45 0 0 68 0 67 88 1 c94 0 128 12 172 59 22
23 25 36 25 95 0 59 -3 72 -25 95 -47 50 -75 59 -217 63 l-133 4 0 -226z m250
189 c5 3 11 1 15 -5 4 -6 10 -8 14 -6 4 3 23 -8 42 -25 19 -17 27 -27 19 -23
-13 7 -13 6 -1 -10 8 -9 16 -29 17 -44 2 -20 1 -23 -6 -12 -5 8 -10 11 -10 5
0 -5 4 -16 9 -24 6 -9 5 -19 -2 -26 -19 -21 -27 -7 -27 46 0 31 -4 48 -10 44
-5 -3 -10 1 -10 10 0 8 -7 18 -15 21 -8 4 -13 10 -10 14 3 5 1 11 -5 15 -5 3
-10 1 -10 -6 0 -8 -4 -8 -12 -2 -7 6 -21 9 -30 8 -10 -2 -18 0 -18 3 0 4 -22
7 -50 7 -27 0 -50 -4 -50 -10 0 -5 -5 -3 -10 5 -7 10 -10 11 -11 3 -1 -7 -3
-17 -4 -23 -1 -5 -3 -15 -4 -21 0 -5 -5 -8 -10 -5 -5 3 -12 -1 -15 -10 -4 -9
-2 -12 5 -8 8 4 10 -11 7 -50 -1 -31 1 -56 5 -56 5 0 5 -4 2 -10 -3 -5 0 -10
7 -10 10 0 10 -2 0 -9 -19 -12 36 -21 120 -20 45 1 66 5 61 12 -3 6 -1 7 5 3
7 -4 12 -2 12 3 0 6 5 11 11 11 5 0 7 -6 3 -12 -5 -9 -2 -9 9 1 18 15 23 26 7
16 -5 -3 -10 -2 -10 3 0 16 28 22 39 8 9 -10 6 -17 -11 -28 -47 -29 -85 -38
-151 -35 -55 2 -73 -1 -89 -15 -12 -10 -17 -18 -13 -18 4 0 0 -9 -10 -20 -10
-11 -21 -17 -26 -15 -4 3 -7 75 -7 160 1 149 2 156 22 160 38 9 161 10 179 2
9 -4 22 -5 27 -2z m19 -69 c32 -29 29 -88 -5 -115 -22 -17 -41 -21 -100 -21
l-74 0 0 83 0 82 79 -5 c59 -4 84 -10 100 -24z m-207 -286 c-5 -46 -26 -54
-36 -14 -5 19 -2 30 11 40 27 20 29 18 25 -26z"/>
<path d="M2726 847 c3 -10 9 -15 12 -12 3 3 0 11 -7 18 -10 9 -11 8 -5 -6z"/>
<path d="M3157 796 c-78 -29 -117 -86 -117 -169 0 -184 263 -244 358 -82 47
81 13 198 -70 241 -43 22 -125 27 -171 10z m174 -32 c5 -3 7 -10 3 -15 -3 -6
3 -13 15 -16 16 -4 18 -9 11 -23 -7 -14 -6 -17 8 -16 10 0 17 -7 18 -19 1 -11
5 -28 9 -38 5 -11 3 -23 -5 -30 -10 -10 -12 -8 -7 5 3 10 2 20 -4 23 -5 4 -9
3 -8 -2 3 -20 -2 -33 -13 -33 -9 0 -9 3 0 12 8 8 8 17 1 30 -5 10 -7 24 -3 30
4 6 3 8 -4 4 -6 -3 -9 1 -8 11 2 15 -37 57 -54 58 -3 1 -14 6 -25 12 -24 13
-57 12 -67 -2 -5 -6 -8 -5 -8 3 0 6 -4 12 -10 12 -5 0 -7 -7 -3 -15 3 -9 2
-15 -3 -14 -21 4 -34 -2 -31 -13 1 -7 -4 -12 -10 -10 -7 1 -13 -6 -13 -15 0
-15 -2 -16 -10 -3 -17 26 -11 38 28 58 30 17 50 20 111 16 40 -2 77 -7 82 -10z
m-28 -64 c59 -65 17 -171 -69 -174 -55 -1 -91 24 -104 74 -30 111 96 184 173
100z m-200 -10 c3 -11 2 -20 -2 -20 -13 0 5 -101 20 -111 12 -7 12 -9 -1 -9
-13 0 -13 -2 0 -9 8 -6 18 -7 22 -5 4 3 8 0 8 -5 0 -6 8 -11 18 -11 15 0 15
-2 2 -11 -12 -8 -12 -10 5 -8 11 1 27 -1 36 -5 8 -4 29 -1 45 5 16 7 36 11 46
10 9 -1 19 3 23 8 4 7 -1 9 -12 5 -17 -5 -17 -5 -1 8 9 7 25 19 35 26 10 7 13
11 7 8 -6 -3 -11 1 -11 9 0 8 4 12 8 9 4 -2 10 0 14 6 7 12 25 4 25 -11 0 -6
-4 -8 -9 -5 -5 4 -7 -2 -4 -13 3 -10 -1 -22 -8 -26 -8 -6 -10 -4 -4 6 4 8 -3
2 -16 -13 -35 -38 -57 -46 -130 -44 -69 2 -114 21 -126 54 -4 9 -11 20 -15 23
-14 9 -17 101 -5 124 6 11 10 24 9 28 -1 5 2 6 7 3 5 -3 11 -15 14 -26z"/>
<path d="M3110 736 c0 -2 7 -7 16 -10 8 -3 12 -2 9 4 -6 10 -25 14 -25 6z"/>
<path d="M3169 603 c-13 -16 -12 -17 4 -4 16 13 21 21 13 21 -2 0 -10 -8 -17
-17z"/>
<path d="M3635 798 c-16 -6 -38 -17 -47 -26 -16 -14 -18 -13 -18 6 0 19 -6 22
-40 22 l-40 0 0 -170 0 -170 43 0 42 0 0 106 0 106 33 29 c20 18 43 29 62 29
28 0 30 2 30 40 0 44 -9 48 -65 28z m33 -36 c-9 -10 -13 -11 -19 0 -7 10 -9 9
-9 -4 0 -10 -6 -19 -12 -20 -7 0 -18 -2 -25 -2 -6 -1 -21 -12 -32 -25 -23 -26
-27 -36 -11 -26 6 3 7 -1 4 -9 -3 -9 -9 -16 -13 -16 -3 0 -6 -37 -6 -82 0 -69
-3 -83 -17 -86 -15 -3 -17 11 -17 138 0 114 3 139 13 131 7 -6 16 -8 20 -4 3
4 12 -1 19 -11 12 -16 14 -16 31 3 10 11 22 18 27 16 4 -3 10 -2 13 3 2 4 14
8 25 8 15 0 17 -3 9 -14z"/>
<path d="M3525 730 c-4 -6 1 -7 11 -3 13 5 15 3 9 -7 -5 -9 -4 -11 4 -6 6 4 9
12 6 17 -8 12 -22 12 -30 -1z"/>
<path d="M3834 786 c-64 -33 -94 -82 -94 -155 0 -60 17 -98 60 -134 69 -58
190 -61 260 -7 l25 19 -27 27 c-25 26 -29 27 -45 12 -45 -39 -135 -29 -173 19
-11 14 -20 29 -20 33 0 3 66 6 146 5 l146 -1 -7 46 c-8 56 -45 114 -86 136
-17 8 -54 18 -83 21 -41 4 -61 0 -102 -21z m158 -10 c6 4 9 3 6 -2 -3 -5 0
-15 8 -22 9 -8 14 -9 14 -2 0 20 43 -29 46 -52 2 -13 5 -32 8 -44 3 -14 -1
-21 -10 -21 -8 0 -13 6 -10 13 3 8 0 11 -9 8 -8 -3 -13 -11 -11 -17 1 -7 1 -9
-1 -4 -3 4 -10 4 -16 0 -7 -3 -2 5 10 18 l23 25 -26 37 c-14 21 -30 35 -36 31
-7 -4 -8 -2 -4 4 5 8 -1 13 -16 14 -13 1 -32 2 -43 3 -11 1 -32 -4 -46 -11
-14 -7 -31 -9 -38 -5 -27 17 78 43 117 29 13 -5 28 -5 34 -2z m-162 -36 c11
-7 11 -10 2 -10 -7 0 -11 -4 -8 -9 3 -5 -1 -14 -9 -21 -8 -7 -12 -16 -9 -21 3
-5 -1 -9 -8 -9 -7 -1 -4 -6 7 -13 28 -17 28 -31 -1 -62 -14 -15 -19 -25 -11
-22 9 3 20 -4 27 -19 8 -13 19 -24 27 -24 7 0 21 -8 31 -17 16 -17 102 -27
102 -12 0 3 6 6 13 6 6 0 20 4 30 8 10 4 17 3 17 -5 0 -6 -4 -9 -9 -6 -5 3
-11 0 -14 -7 -10 -26 -193 -9 -204 19 -3 8 -10 11 -16 7 -6 -4 -8 0 -4 10 3
10 2 17 -2 17 -23 0 -38 112 -18 132 7 7 14 18 15 23 5 45 15 53 42 35z m161
-29 c16 -16 29 -34 29 -40 0 -7 -35 -11 -100 -11 l-100 0 12 26 c27 58 112 72
159 25z"/>
<path d="M3803 715 c0 -8 4 -12 9 -9 5 3 6 10 3 15 -9 13 -12 11 -12 -6z"/>
<path d="M3800 630 c0 -5 5 -10 11 -10 5 0 7 5 4 10 -3 6 -8 10 -11 10 -2 0
-4 -4 -4 -10z"/>
<path d="M3820 521 c0 -8 52 -22 58 -16 2 1 -11 7 -27 13 -17 6 -31 7 -31 3z"/>
<path d="M2293 725 c0 -8 4 -12 9 -9 5 3 6 10 3 15 -9 13 -12 11 -12 -6z"/>
<path d="M2200 590 c0 -5 5 -10 11 -10 5 0 7 5 4 10 -3 6 -8 10 -11 10 -2 0
-4 -4 -4 -10z"/>
<path d="M2281 534 c0 -11 3 -14 6 -6 3 7 2 16 -1 19 -3 4 -6 -2 -5 -13z"/>
<path d="M1993 320 c0 -36 2 -50 4 -32 2 17 2 47 0 65 -2 17 -4 3 -4 -33z"/>
<path d="M2650 360 c0 -13 -5 -18 -15 -14 -21 8 -45 -14 -45 -41 0 -28 19 -45
48 -42 20 1 22 7 22 59 0 32 -2 58 -5 58 -3 0 -5 -9 -5 -20z m-2 -53 c4 -20
-25 -34 -40 -19 -15 15 -1 44 19 40 10 -2 19 -11 21 -21z"/>
<path d="M3040 361 c0 -14 -5 -18 -18 -14 -28 7 -47 -23 -36 -55 7 -20 17 -27
36 -28 25 -1 27 1 30 58 2 32 0 58 -4 58 -5 0 -8 -9 -8 -19z m0 -56 c0 -18 -5
-25 -20 -25 -15 0 -20 7 -20 25 0 18 5 25 20 25 15 0 20 -7 20 -25z"/>
<path d="M3453 370 c-52 -21 -31 -115 25 -108 21 2 28 9 30 31 3 23 0 27 -20
26 -17 -1 -18 -3 -5 -6 29 -8 21 -35 -10 -31 -25 3 -28 7 -28 38 0 33 2 35 33
35 34 0 42 9 16 19 -9 3 -16 6 -17 5 -1 0 -12 -4 -24 -9z"/>
<path d="M1906 337 c-23 -56 -28 -77 -18 -77 5 0 12 9 15 20 7 27 44 26 52 -1
4 -11 9 -18 12 -15 8 7 -27 106 -38 106 -5 0 -15 -15 -23 -33z m34 -13 c0 -8
-6 -14 -14 -14 -9 0 -12 7 -9 20 6 22 23 18 23 -6z"/>
<path d="M2081 313 c1 -32 4 -46 6 -30 3 20 10 27 28 27 12 0 25 7 29 15 10
26 -5 45 -35 45 -29 0 -29 0 -28 -57z m49 27 c0 -13 -7 -20 -20 -20 -13 0 -20
7 -20 20 0 13 7 20 20 20 13 0 20 -7 20 -20z"/>
<path d="M2720 315 c0 -30 5 -55 10 -55 6 0 10 11 10 25 0 14 5 25 10 25 6 0
16 -11 22 -25 6 -14 15 -25 20 -25 12 0 10 14 -4 28 -8 8 -9 18 -1 36 14 30 0
46 -39 46 -27 0 -28 -1 -28 -55z m55 25 c0 -8 -8 -16 -17 -18 -13 -2 -18 3
-18 18 0 15 5 20 18 18 9 -2 17 -10 17 -18z"/>
<path d="M3927 357 c-10 -26 8 -92 26 -95 9 -2 17 1 17 7 0 6 -4 11 -9 11 -5
0 -11 11 -13 25 -4 17 -1 25 8 25 18 0 18 8 0 26 -18 17 -23 18 -29 1z"/>
<path d="M2172 338 c-16 -16 -15 -53 3 -68 18 -15 51 -5 57 18 12 46 -30 80
-60 50z m46 -32 c-2 -11 -10 -22 -19 -24 -21 -4 -33 26 -18 44 15 18 41 5 37
-20z"/>
<path d="M2246 328 c4 -13 11 -34 17 -48 l10 -25 10 28 c6 15 14 27 17 27 3 0
11 -12 17 -27 l10 -28 10 25 c20 48 24 70 15 70 -5 0 -13 -15 -19 -32 l-10
-33 -7 33 c-4 17 -11 32 -15 32 -5 0 -13 -15 -18 -32 l-11 -33 -7 33 c-4 17
-12 32 -17 32 -5 0 -6 -10 -2 -22z"/>
<path d="M2371 331 c-11 -21 -5 -51 13 -63 16 -11 46 -10 46 2 0 6 -11 10 -25
10 -14 0 -25 5 -25 10 0 6 12 10 26 10 21 0 25 4 22 23 -4 29 -43 35 -57 8z
m49 -12 c0 -5 -9 -9 -20 -9 -22 0 -27 16 -7 23 15 5 27 -1 27 -14z"/>
<path d="M2450 303 c0 -24 5 -43 10 -43 6 0 10 16 10 35 0 24 5 35 15 35 8 0
15 4 15 9 0 5 -11 8 -25 7 -23 -1 -25 -5 -25 -43z"/>
<path d="M2523 343 c-16 -6 -17 -55 -1 -71 15 -15 48 -16 48 -2 0 6 -9 10 -19
10 -11 0 -23 5 -26 10 -4 6 7 10 24 10 34 0 36 2 21 31 -11 19 -23 22 -47 12z
m37 -24 c0 -5 -9 -9 -20 -9 -22 0 -27 16 -7 23 15 5 27 -1 27 -14z"/>
<path d="M2822 338 c-16 -16 -15 -53 3 -68 18 -15 52 -4 60 20 13 43 -33 78
-63 48z m48 -33 c0 -18 -5 -25 -20 -25 -15 0 -20 7 -20 25 0 18 5 25 20 25 15
0 20 -7 20 -25z"/>
<path d="M2910 340 c0 -5 9 -10 20 -10 27 0 25 -18 -2 -22 -15 -2 -23 -10 -23
-23 0 -16 7 -20 31 -20 28 -1 31 2 29 31 -1 17 -5 36 -9 43 -9 14 -46 15 -46
1z m40 -50 c0 -5 -9 -10 -21 -10 -11 0 -17 5 -14 10 3 6 13 10 21 10 8 0 14
-4 14 -10z"/>
<path d="M3082 301 c1 -44 2 -44 5 -8 3 28 9 37 23 37 14 0 20 -9 23 -37 l4
-38 1 38 c2 29 6 37 21 37 15 0 21 -9 24 -37 4 -33 4 -32 3 7 l-1 45 -52 1
-53 1 2 -46z"/>
<path d="M3225 340 c-4 -7 0 -10 10 -8 10 2 20 -3 22 -9 3 -8 -4 -13 -16 -13
-24 0 -39 -26 -24 -41 6 -6 21 -7 35 -4 22 6 24 10 19 43 -6 37 -32 55 -46 32z
m35 -50 c0 -5 -9 -10 -21 -10 -11 0 -17 5 -14 10 3 6 13 10 21 10 8 0 14 -4
14 -10z"/>
<path d="M3298 288 c-2 -32 0 -58 5 -58 4 0 7 9 7 20 0 13 5 18 15 14 21 -8
45 14 45 41 0 28 -19 45 -47 42 -19 -1 -22 -8 -25 -59z m52 16 c0 -33 -33 -30
-38 4 -3 17 2 22 17 22 16 0 21 -6 21 -26z"/>
<path d="M3540 336 c-27 -34 8 -88 46 -71 17 8 17 9 -6 13 -40 6 -48 22 -12
22 35 0 37 2 22 31 -13 23 -33 25 -50 5z m40 -17 c0 -5 -9 -9 -20 -9 -22 0
-27 16 -7 23 15 5 27 -1 27 -14z"/>
<path d="M3610 303 c0 -24 5 -43 10 -43 6 0 10 16 10 35 0 28 4 35 19 35 15 0
21 -9 24 -37 4 -33 4 -32 3 7 -1 44 -2 45 -33 45 -32 1 -33 0 -33 -42z"/>
<path d="M3710 336 c-27 -34 8 -88 46 -71 17 8 17 9 -6 13 -40 6 -48 22 -12
22 33 0 42 16 20 38 -16 16 -33 15 -48 -2z m40 -17 c0 -5 -7 -9 -15 -9 -15 0
-20 12 -9 23 8 8 24 -1 24 -14z"/>
<path d="M3791 300 c2 -33 3 -37 6 -15 2 17 14 38 26 47 l22 18 -27 -2 c-26
-2 -28 -5 -27 -48z"/>
<path d="M3855 341 c-3 -7 2 -11 14 -11 12 0 21 -4 21 -10 0 -5 -9 -10 -20
-10 -20 0 -38 -25 -26 -37 3 -3 20 -7 36 -8 30 -2 31 -1 28 39 -2 33 -7 42
-25 44 -11 2 -24 -2 -28 -7z m40 -51 c-3 -5 -13 -10 -21 -10 -8 0 -14 5 -14
10 0 6 9 10 21 10 11 0 17 -4 14 -10z"/>
<path d="M3990 336 c-15 -19 -9 -56 12 -69 34 -22 66 41 36 71 -16 16 -33 15
-48 -2z m47 -40 c-8 -20 -36 -21 -43 -1 -4 8 0 22 7 31 11 13 14 13 27 0 8 -8
12 -22 9 -30z"/>
<path d="M4070 302 c0 -26 4 -41 10 -37 6 3 10 19 10 36 0 19 5 29 15 29 8 0
15 4 15 9 0 5 -11 8 -25 7 -23 -1 -25 -5 -25 -44z"/>
<path d="M2028 303 c6 -2 18 -2 25 0 6 3 1 5 -13 5 -14 0 -19 -2 -12 -5z"/>
</g>
</svg>
